<?xml version="1.0" encoding="UTF-8" standalone="no"?>
<!DOCTYPE svg PUBLIC "-//W3C//DTD SVG 1.1//EN" "http://www.w3.org/Graphics/SVG/1.1/DTD/svg11.dtd">
<svg version="1.1" xmlns="http://www.w3.org/2000/svg" xmlns:xlink="http://www.w3.org/1999/xlink" preserveAspectRatio="xMidYMid meet" viewBox="132.06435643564356 130.99999999999994 66.00000000000003 68.25000000000006" width="58.06" height="59.25"><defs><path d="M194.06 162.25C194.06 178.26 181.07 191.25 165.06 191.25C149.06 191.25 136.06 178.26 136.06 162.25C136.06 146.24 149.06 133.25 165.06 133.25C181.07 133.25 194.06 146.24 194.06 162.25Z" id="c1LlYWmOJD"></path><path d="M194 161C194 177.01 181.01 190 165 190C148.99 190 136 177.01 136 161C136 144.99 148.99 132 165 132C181.01 132 194 144.99 194 161Z" id="a3uRQQf3cc"></path><path d="M182.18 148.31L182.38 148.34L182.57 148.38L182.76 148.43L182.94 148.5L183.12 148.57L183.29 148.66L183.46 148.75L183.62 148.86L183.77 148.97L183.92 149.09L184.05 149.23L184.18 149.36L184.31 149.51L184.42 149.66L184.53 149.82L184.62 149.99L184.71 150.16L184.78 150.34L184.85 150.52L184.9 150.71L184.94 150.9L184.97 151.1L184.99 151.3L185 151.5L185 173.5L184.99 173.7L184.97 173.9L184.94 174.1L184.9 174.29L184.85 174.48L184.78 174.66L184.71 174.84L184.62 175.01L184.53 175.18L184.42 175.34L184.31 175.49L184.18 175.64L184.05 175.77L183.92 175.91L183.77 176.03L183.62 176.14L183.46 176.25L183.29 176.34L183.12 176.43L182.94 176.5L182.76 176.57L182.57 176.62L182.38 176.66L182.18 176.69L181.98 176.71L181.78 176.72L148.22 176.72L148.02 176.71L147.82 176.69L147.62 176.66L147.43 176.62L147.24 176.57L147.06 176.5L146.88 176.43L146.71 176.34L146.54 176.25L146.38 176.14L146.23 176.03L146.08 175.91L145.95 175.77L145.82 175.64L145.69 175.49L145.58 175.34L145.47 175.18L145.38 175.01L145.29 174.84L145.22 174.66L145.15 174.48L145.1 174.29L145.06 174.1L145.03 173.9L145.01 173.7L145 173.5L145 151.5L145.01 151.3L145.03 151.1L145.06 150.9L145.1 150.71L145.15 150.52L145.22 150.34L145.29 150.16L145.38 149.99L145.47 149.82L145.58 149.66L145.69 149.51L145.82 149.36L145.95 149.23L146.08 149.09L146.23 148.97L146.38 148.86L146.54 148.75L146.71 148.66L146.88 148.57L147.06 148.5L147.24 148.43L147.43 148.38L147.62 148.34L147.82 148.31L148.02 148.29L148.22 148.28L181.78 148.28L181.98 148.29L182.18 148.31ZM158.19 165.32L156.14 167.31L151.51 171.8L149.46 173.79L147.92 175.27L147.81 175.38L147.84 175.39L147.96 175.41L148.09 175.43L148.22 175.43L181.78 175.43L181.91 175.43L182.04 175.41L182.16 175.39L182.29 175.36L182.32 175.35L182.23 175.27L180.68 173.79L178.6 171.8L173.92 167.31L171.84 165.32L170.28 163.83L169.63 163.21L167.38 165.18L167.28 165.26L167.18 165.34L167.07 165.42L166.96 165.49L166.85 165.55L166.74 165.61L166.63 165.67L166.51 165.73L166.39 165.77L166.27 165.82L166.15 165.86L166.03 165.9L165.9 165.93L165.78 165.96L165.65 165.98L165.52 166L165.4 166.01L165.27 166.02L165.14 166.03L165.01 166.03L164.88 166.03L164.75 166.02L164.63 166.01L164.5 166L164.37 165.98L164.24 165.96L164.12 165.93L163.99 165.9L163.87 165.86L163.75 165.82L163.63 165.78L163.51 165.73L163.39 165.67L163.28 165.61L163.17 165.55L163.06 165.49L162.95 165.42L162.84 165.34L162.74 165.26L162.64 165.18L160.38 163.2L159.72 163.83L158.19 165.32ZM146.34 151.15L146.32 151.24L146.3 151.33L146.29 151.42L146.29 151.5L146.29 173.5L146.29 173.63L146.31 173.76L146.33 173.88L146.36 174.01L146.4 174.13L146.44 174.25L146.49 174.36L146.55 174.47L146.62 174.58L146.66 174.62L147 174.29L148.54 172.81L150.6 170.83L155.24 166.36L157.3 164.37L158.84 162.89L159.4 162.35L146.4 151.01L146.37 151.07L146.34 151.15ZM171.16 162.89L172.7 164.36L174.76 166.33L179.4 170.77L181.46 172.75L183 174.22L183.38 174.58L183.38 174.58L183.45 174.47L183.51 174.36L183.56 174.25L183.6 174.13L183.64 174.01L183.67 173.88L183.69 173.76L183.71 173.63L183.71 173.5L183.71 151.5L183.71 151.37L183.69 151.24L183.67 151.12L183.64 151L170.61 162.36L171.16 162.89ZM148.07 149.64L147.92 149.72L147.77 149.79L147.63 149.86L147.5 149.94L147.38 150.02L147.29 150.07L163.49 164.21L163.62 164.31L163.75 164.4L163.9 164.48L164.04 164.55L164.2 164.61L164.35 164.66L164.52 164.7L164.68 164.72L164.84 164.74L165.01 164.74L165.18 164.74L165.34 164.72L165.51 164.7L165.67 164.66L165.82 164.61L165.98 164.55L166.13 164.48L166.27 164.4L166.4 164.31L166.53 164.21L182.9 149.93L182.86 149.9L182.75 149.83L182.64 149.77L182.53 149.72L182.41 149.68L182.29 149.64L182.16 149.61L182.04 149.59L181.91 149.57L181.78 149.57L148.22 149.57L148.07 149.64Z" id="a1zHT65ISZ"></path></defs><g><g><g><filter id="shadow3487315" x="127.06" y="124.25" width="76" height="78" filterUnits="userSpaceOnUse" primitiveUnits="userSpaceOnUse"><feFlood></feFlood><feComposite in2="SourceAlpha" operator="in"></feComposite><feGaussianBlur stdDeviation="1"></feGaussianBlur><feOffset dx="0" dy="2" result="afterOffset"></feOffset><feFlood flood-color="#000000" flood-opacity="0.5"></feFlood><feComposite in2="afterOffset" operator="in"></feComposite><feMorphology operator="dilate" radius="0"></feMorphology><feComposite in2="SourceAlpha" operator="out"></feComposite></filter><path d="M194.06 162.25C194.06 178.26 181.07 191.25 165.06 191.25C149.06 191.25 136.06 178.26 136.06 162.25C136.06 146.24 149.06 133.25 165.06 133.25C181.07 133.25 194.06 146.24 194.06 162.25Z" id="eFf7LeGTG" fill="white" fill-opacity="1" filter="url(#shadow3487315)"></path></g><use xlink:href="#c1LlYWmOJD" opacity="1" fill="#081018" fill-opacity="0.51"></use></g><g><use xlink:href="#a3uRQQf3cc" opacity="1" fill="#c9e4ff" fill-opacity="1"></use></g><g><use xlink:href="#a1zHT65ISZ" opacity="1" fill="#000000" fill-opacity="1"></use><g><use xlink:href="#a1zHT65ISZ" opacity="1" fill-opacity="0" stroke="#000000" stroke-width="1" stroke-opacity="0"></use></g></g></g></svg>