<?xml version="1.0" encoding="UTF-8" standalone="no"?>
<!DOCTYPE svg PUBLIC "-//W3C//DTD SVG 1.1//EN" "http://www.w3.org/Graphics/SVG/1.1/DTD/svg11.dtd">
<svg version="1.1" xmlns="http://www.w3.org/2000/svg" xmlns:xlink="http://www.w3.org/1999/xlink" preserveAspectRatio="xMidYMid meet" viewBox="267 132.33333333333314 66 67.66666666666686" width="58" height="58.67"><defs><path d="M329 163C329 179.01 316.01 192 300 192C283.99 192 271 179.01 271 163C271 146.99 283.99 134 300 134C316.01 134 329 146.99 329 163Z" id="e2HyYNDDGK"></path><path d="M329 162.33C329 178.34 316.01 191.33 300 191.33C283.99 191.33 271 178.34 271 162.33C271 146.33 283.99 133.33 300 133.33C316.01 133.33 329 146.33 329 162.33Z" id="b6o1rPVhVO"></path><path d="M289.95 155.74L290.17 155.82L290.37 155.93L290.56 156.06L290.72 156.21L290.88 156.38L291 156.57L291.11 156.78L291.19 157L291.23 157.22L291.25 157.46L291.25 178.28L291.23 178.5L291.19 178.72L291.11 178.92L291 179.12L290.88 179.31L290.72 179.47L290.56 179.62L290.37 179.75L290.17 179.86L289.95 179.93L289.73 179.98L289.5 180L284.83 180L284.6 179.98L284.38 179.93L284.17 179.86L283.96 179.75L283.78 179.62L283.61 179.47L283.46 179.29L283.33 179.1L283.23 178.9L283.15 178.68L283.1 178.45L283.08 178.22L283.08 157.46L283.1 157.21L283.14 156.98L283.22 156.75L283.31 156.55L283.44 156.36L283.58 156.19L283.74 156.04L283.92 155.92L284.12 155.81L284.33 155.74L284.55 155.69L284.77 155.68L289.5 155.68L289.73 155.69L289.95 155.74ZM310.46 155.16L311.01 155.25L311.54 155.38L312.05 155.54L312.55 155.73L313.04 155.96L313.5 156.21L313.94 156.5L314.37 156.81L314.77 157.15L315.14 157.52L315.5 157.91L315.83 158.32L316.13 158.76L316.41 159.22L316.65 159.69L316.87 160.19L317.06 160.7L317.22 161.24L317.34 161.78L317.43 162.35L317.48 162.92L317.5 163.51L317.5 178.81L317.5 178.89L317.49 178.96L317.47 179.03L317.45 179.11L317.43 179.18L317.4 179.25L317.37 179.32L317.33 179.38L317.28 179.45L317.24 179.51L317.19 179.57L317.14 179.63L317.08 179.68L317.02 179.73L316.96 179.78L316.9 179.82L316.83 179.86L316.76 179.9L316.69 179.93L316.62 179.95L316.55 179.97L316.48 179.99L316.41 180L316.33 180L310.5 180L310.43 180L310.35 179.99L310.28 179.97L310.21 179.95L310.14 179.93L310.07 179.9L310 179.86L309.94 179.82L309.87 179.78L309.81 179.73L309.75 179.68L309.7 179.63L309.64 179.57L309.59 179.51L309.55 179.45L309.51 179.38L309.47 179.32L309.43 179.25L309.4 179.18L309.38 179.11L309.36 179.03L309.35 178.96L309.34 178.89L309.33 178.81L309.33 166.06L309.33 165.93L309.33 165.8L309.32 165.67L309.31 165.55L309.3 165.42L309.29 165.3L309.27 165.19L309.25 165.07L309.23 164.96L309.2 164.85L309.18 164.75L309.14 164.64L309.11 164.54L309.07 164.44L309.03 164.35L308.99 164.26L308.94 164.17L308.89 164.08L308.84 164L308.78 163.92L308.72 163.84L308.66 163.77L308.59 163.7L308.52 163.63L308.44 163.55L308.35 163.47L308.27 163.4L308.18 163.33L308.09 163.26L307.99 163.19L307.9 163.13L307.8 163.08L307.71 163.02L307.61 162.97L307.5 162.92L307.4 162.88L307.3 162.84L307.19 162.8L307.08 162.77L306.97 162.73L306.86 162.71L306.75 162.68L306.64 162.66L306.53 162.65L306.41 162.64L306.3 162.63L306.18 162.62L306.07 162.62L305.84 162.63L305.62 162.65L305.41 162.69L305.2 162.74L305 162.81L304.8 162.89L304.61 162.98L304.43 163.09L304.26 163.21L304.09 163.34L303.93 163.48L303.78 163.63L303.65 163.8L303.52 163.97L303.4 164.15L303.29 164.34L303.19 164.54L303.11 164.75L303.03 164.96L302.97 165.18L302.92 165.41L302.89 165.64L302.87 165.88L302.86 166.12L302.86 178.93L302.86 179.01L302.85 179.09L302.83 179.17L302.81 179.24L302.78 179.31L302.75 179.37L302.71 179.44L302.67 179.5L302.63 179.56L302.58 179.61L302.53 179.66L302.47 179.71L302.41 179.76L302.35 179.8L302.29 179.83L302.23 179.87L302.16 179.9L302.1 179.92L302.03 179.95L301.96 179.97L301.89 179.98L301.82 179.99L301.76 180L301.69 180L295.27 180L295.21 180L295.14 179.99L295.07 179.98L295.01 179.97L294.94 179.95L294.87 179.92L294.8 179.9L294.74 179.87L294.68 179.83L294.61 179.8L294.55 179.76L294.49 179.71L294.44 179.66L294.39 179.61L294.34 179.56L294.29 179.5L294.25 179.44L294.22 179.37L294.18 179.31L294.16 179.24L294.14 179.17L294.12 179.09L294.11 179.01L294.11 178.93L294.11 156.8L294.11 156.72L294.12 156.65L294.14 156.57L294.16 156.49L294.18 156.42L294.22 156.35L294.25 156.29L294.29 156.22L294.34 156.16L294.39 156.1L294.44 156.05L294.49 156L294.55 155.95L294.61 155.9L294.68 155.86L294.74 155.83L294.8 155.79L294.87 155.76L294.94 155.74L295.01 155.72L295.07 155.7L295.14 155.69L295.21 155.68L295.27 155.68L301.11 155.68L301.18 155.68L301.25 155.69L301.33 155.7L301.4 155.72L301.47 155.75L301.54 155.78L301.6 155.81L301.67 155.85L301.73 155.9L301.8 155.94L301.85 155.99L301.91 156.05L301.96 156.11L302.01 156.17L302.06 156.23L302.1 156.29L302.14 156.36L302.17 156.43L302.2 156.5L302.23 156.57L302.25 156.64L302.26 156.72L302.27 156.79L302.27 156.86L302.27 157.69L302.45 157.5L302.64 157.31L302.83 157.12L303.04 156.95L303.24 156.77L303.46 156.61L303.68 156.46L303.9 156.31L304.14 156.17L304.37 156.03L304.62 155.91L304.86 155.79L305.12 155.68L305.37 155.58L305.63 155.49L305.9 155.41L306.16 155.33L306.43 155.27L306.71 155.21L306.98 155.17L307.26 155.13L307.54 155.11L307.82 155.09L308.11 155.08L309.33 155.08L309.9 155.1L310.46 155.16ZM284.69 156.87L284.61 156.9L284.53 156.94L284.46 156.99L284.4 157.05L284.35 157.12L284.31 157.2L284.28 157.28L284.26 157.37L284.25 157.46L284.25 178.22L284.26 178.31L284.28 178.4L284.32 178.48L284.37 178.56L284.43 178.63L284.5 178.69L284.58 178.74L284.66 178.78L284.75 178.8L284.83 178.81L289.5 178.81L289.56 178.81L289.62 178.79L289.67 178.77L289.73 178.73L289.79 178.68L289.85 178.62L289.91 178.55L289.97 178.47L290.02 178.38L290.08 178.28L290.08 157.46L290.07 157.37L290.05 157.28L290.01 157.2L289.96 157.12L289.9 157.05L289.83 156.99L289.75 156.94L289.67 156.9L289.59 156.87L289.5 156.86L284.77 156.86L284.69 156.87ZM307.89 156.28L307.61 156.3L307.33 156.32L307.06 156.37L306.78 156.42L306.51 156.48L306.25 156.55L305.99 156.64L305.73 156.73L305.48 156.84L305.23 156.95L304.99 157.08L304.76 157.21L304.53 157.35L304.3 157.5L304.09 157.66L303.88 157.83L303.68 158.01L303.48 158.19L303.3 158.38L303.12 158.58L302.96 158.79L302.8 159L301.17 160.66L301.17 156.92L301.11 156.86L295.33 156.86L295.33 178.81L301.75 178.81L301.75 166.12L301.76 165.78L301.79 165.45L301.85 165.13L301.92 164.82L302.01 164.51L302.12 164.22L302.25 163.94L302.39 163.67L302.55 163.41L302.73 163.16L302.92 162.93L303.12 162.71L303.34 162.51L303.57 162.32L303.82 162.15L304.07 161.99L304.34 161.85L304.62 161.73L304.9 161.63L305.2 161.55L305.5 161.49L305.81 161.45L306.12 161.43L306.28 161.43L306.44 161.44L306.6 161.46L306.76 161.47L306.91 161.5L307.07 161.53L307.22 161.56L307.37 161.6L307.52 161.65L307.67 161.7L307.82 161.75L307.96 161.81L308.1 161.88L308.24 161.95L308.38 162.02L308.52 162.1L308.65 162.19L308.78 162.28L308.91 162.37L309.03 162.47L309.16 162.57L309.28 162.68L309.39 162.8L309.49 162.9L309.58 163L309.67 163.11L309.75 163.23L309.83 163.34L309.9 163.46L309.97 163.58L310.04 163.71L310.1 163.84L310.15 163.98L310.21 164.11L310.25 164.25L310.3 164.4L310.34 164.55L310.37 164.7L310.4 164.86L310.43 165.02L310.45 165.18L310.47 165.35L310.48 165.52L310.49 165.7L310.5 165.88L310.5 166.06L310.56 178.81L316.27 178.81L316.33 178.75L316.33 163.51L316.32 162.99L316.27 162.48L316.18 161.98L316.07 161.49L315.93 161.02L315.75 160.56L315.55 160.12L315.32 159.7L315.07 159.3L314.79 158.91L314.49 158.55L314.16 158.21L313.82 157.89L313.45 157.6L313.06 157.33L312.66 157.09L312.23 156.88L311.79 156.7L311.34 156.55L310.87 156.43L310.39 156.34L309.9 156.29L309.39 156.27L308.17 156.27L307.89 156.28ZM288.65 145.23L289.32 145.51L289.93 145.91L290.49 146.42L290.97 146.99L291.36 147.62L291.64 148.29L291.8 149.01L291.83 149.75L291.77 150.51L291.59 151.24L291.3 151.93L290.91 152.56L290.43 153.13L289.88 153.61L289.28 153.99L288.64 154.27L287.97 154.44L287.28 154.49L287.17 154.49L286.46 154.46L285.76 154.29L285.09 154.01L284.46 153.62L283.9 153.13L283.42 152.56L283.03 151.93L282.74 151.24L282.56 150.51L282.5 149.75L282.56 149.01L282.72 148.29L283 147.61L283.4 146.96L283.9 146.36L284.46 145.88L285.08 145.5L285.75 145.22L286.47 145.06L287.22 145L287.95 145.06L288.65 145.23ZM285.84 146.45L285.24 146.76L284.72 147.19L284.26 147.76L283.93 148.38L283.73 149.05L283.67 149.75L283.73 150.45L283.93 151.13L284.26 151.76L284.72 152.3L285.25 152.73L285.85 153.05L286.5 153.24L287.17 153.31L287.85 153.26L288.5 153.07L289.09 152.74L289.62 152.3L290.08 151.76L290.4 151.13L290.6 150.45L290.67 149.75L290.6 149.05L290.4 148.38L290.08 147.76L289.62 147.19L289.1 146.76L288.51 146.45L287.88 146.25L287.22 146.19L286.5 146.25L285.84 146.45Z" id="blmQ1Wh98"></path></defs><g><g><g><filter id="shadow11259041" x="262" y="125" width="76" height="78" filterUnits="userSpaceOnUse" primitiveUnits="userSpaceOnUse"><feFlood></feFlood><feComposite in2="SourceAlpha" operator="in"></feComposite><feGaussianBlur stdDeviation="1"></feGaussianBlur><feOffset dx="0" dy="2" result="afterOffset"></feOffset><feFlood flood-color="#000000" flood-opacity="0.5"></feFlood><feComposite in2="afterOffset" operator="in"></feComposite><feMorphology operator="dilate" radius="0"></feMorphology><feComposite in2="SourceAlpha" operator="out"></feComposite></filter><path d="M329 163C329 179.01 316.01 192 300 192C283.99 192 271 179.01 271 163C271 146.99 283.99 134 300 134C316.01 134 329 146.99 329 163Z" id="e8IIHEXBX" fill="white" fill-opacity="1" filter="url(#shadow11259041)"></path></g><use xlink:href="#e2HyYNDDGK" opacity="1" fill="#081018" fill-opacity="0.51"></use></g><g><use xlink:href="#b6o1rPVhVO" opacity="1" fill="#c9e4ff" fill-opacity="1"></use></g><g><use xlink:href="#blmQ1Wh98" opacity="1" fill="#000000" fill-opacity="1"></use><g><use xlink:href="#blmQ1Wh98" opacity="1" fill-opacity="0" stroke="#000000" stroke-width="1" stroke-opacity="0"></use></g></g></g></svg>