<?xml version="1.0" encoding="UTF-8" standalone="no"?>
<!DOCTYPE svg PUBLIC "-//W3C//DTD SVG 1.1//EN" "http://www.w3.org/Graphics/SVG/1.1/DTD/svg11.dtd">
<svg version="1.1" xmlns="http://www.w3.org/2000/svg" xmlns:xlink="http://www.w3.org/1999/xlink" preserveAspectRatio="xMidYMid meet" viewBox="368.5 154.36 66 67.63999999999999" width="58" height="58.64"><defs><path d="M430.5 185C430.5 201.01 417.51 214 401.5 214C385.49 214 372.5 201.01 372.5 185C372.5 168.99 385.49 156 401.5 156C417.51 156 430.5 168.99 430.5 185Z" id="bvvFqnDtc"></path><path d="M430.5 184.36C430.5 200.37 417.51 213.36 401.5 213.36C385.49 213.36 372.5 200.37 372.5 184.36C372.5 168.35 385.49 155.36 401.5 155.36C417.51 155.36 430.5 168.35 430.5 184.36Z" id="a13E16u1dl"></path><path d="M417.87 203.51L387.87 203.51L387.87 165.21L408.56 165.21L417.87 174.52L417.87 203.51ZM389.14 202.23L416.59 202.23L416.59 175.42L407.65 175.42L407.65 166.49L389.14 166.49L389.14 202.23ZM399.37 191.57L399.06 191.95L398.25 192.65L397.81 193.58L397.62 194.63L397.56 195.7L397.44 196.07L397.17 196.28L396.82 196.31L396.47 196.15L396.02 195.78L395.58 195.4L395.13 195.03L394.68 194.65L394.47 194.21L394.66 193.81L395.09 193.59L395.58 193.75L395.78 193.91L396.18 194.25L396.38 194.41L396.57 193.35L396.94 192.36L397.53 191.51L398.42 190.85L398.93 190.81L399.28 191.12L399.37 191.57ZM403.81 193.28L403.98 193.46L404.62 193.98L405.4 193.87L406.23 193.54L406.99 193.37L407.38 193.43L407.69 193.57L407.96 193.8L408.21 194.09L408.31 194.57L408.02 194.91L407.55 195.01L407.1 194.74L406.71 194.78L405.91 195.01L405.04 195.25L404.42 195.31L404.08 195.21L403.77 195.06L403.49 194.86L403.25 194.62L402.21 195.09L401.15 195.3L400.12 195.13L399.17 194.46L398.99 193.97L399.2 193.55L399.61 193.35L400.07 193.55L400.82 194.02L401.6 193.99L402.38 193.66L403.1 193.23L403.34 193.15L403.59 193.17L403.81 193.28ZM409.38 187.74L409.46 187.84L409.52 187.95L409.56 188.07L409.57 188.19L409.56 188.32L409.52 188.44L409.46 188.55L409.38 188.64L409.29 188.72L409.17 188.78L409.06 188.82L408.93 188.83L408.81 188.82L408.69 188.78L408.58 188.72L408.48 188.64L408.4 188.55L408.34 188.44L408.31 188.32L408.29 188.19L408.31 188.06L408.34 187.94L408.4 187.83L408.48 187.74L408.69 187.6L408.93 187.56L409.17 187.6L409.38 187.74ZM406.12 187.67L406.26 187.81L406.35 187.99L406.38 188.19L406.35 188.33L406.28 188.46L406.15 188.59L405.97 188.71L405.74 188.83L394.89 188.83L394.69 188.8L394.51 188.71L394.37 188.57L394.28 188.39L394.25 188.19L394.28 187.99L394.37 187.81L394.51 187.67L394.69 187.58L394.89 187.55L405.74 187.55L405.94 187.58L406.12 187.67ZM412.58 187.74L412.65 187.84L412.71 187.95L412.75 188.07L412.76 188.19L412.75 188.31L412.71 188.43L412.66 188.54L412.58 188.64L412.48 188.72L412.37 188.78L412.25 188.82L412.12 188.83L412 188.82L411.88 188.78L411.77 188.72L411.67 188.64L411.59 188.55L411.53 188.44L411.5 188.32L411.48 188.19L411.5 188.06L411.53 187.94L411.59 187.83L411.67 187.74L411.88 187.6L412.12 187.56L412.37 187.6L412.58 187.74ZM412.63 184.53L412.75 184.72L412.78 184.96L412.74 185.2L412.62 185.39L412.39 185.51L412.04 185.56L410.57 185.57L405.34 185.62L404.21 185.63L404.19 185.64L395.04 185.64L394.98 185.63L394.89 185.64L394.76 185.62L394.64 185.59L394.53 185.53L394.44 185.45L394.36 185.35L394.3 185.24L394.26 185.12L394.25 185L394.26 184.87L394.3 184.75L394.36 184.64L394.44 184.55L394.64 184.41L394.89 184.37L394.92 184.38L395.04 184.36L412.07 184.36L412.41 184.4L412.63 184.53ZM395.77 170.14L395.89 170.2L395.99 170.27L396.09 170.37L396.11 170.4L396.14 170.44L396.18 170.48L396.23 170.52L396.29 170.56L396.35 170.61L396.43 170.67L396.61 170.77L396.8 170.85L396.99 170.9L397.17 170.94L397.35 170.95L397.51 170.96L397.67 170.95L397.71 170.94L397.75 170.94L397.79 170.94L397.83 170.94L397.87 170.94L397.91 170.94L397.95 170.94L398.92 171.01L399.7 171.22L400.32 171.55L400.79 171.96L401.12 172.43L401.35 172.94L401.49 173.46L401.62 173.58L401.73 173.73L401.82 173.88L401.9 174.04L401.95 174.21L401.99 174.39L402 174.57L402 175L401.98 175.22L401.93 175.43L401.85 175.63L401.75 175.82L401.62 175.99L401.46 176.14L401.29 176.26L401.16 176.59L401.01 176.9L400.84 177.17L400.65 177.43L400.44 177.66L400.2 177.87L399.95 178.05L401.3 178.74L401.47 178.84L401.63 178.95L401.77 179.08L401.91 179.22L402.03 179.37L402.13 179.54L402.23 179.72L402.45 180.2L402.02 180.51L401.49 180.85L400.94 181.14L400.38 181.38L399.79 181.56L399.19 181.7L398.58 181.78L397.95 181.81L397.33 181.78L396.71 181.7L396.11 181.56L395.52 181.37L394.95 181.13L394.4 180.84L393.88 180.5L393.46 180.2L393.66 179.73L393.75 179.55L393.85 179.38L393.97 179.22L394.09 179.08L394.23 178.95L394.38 178.84L394.55 178.74L395.95 178.05L395.7 177.87L395.47 177.66L395.25 177.43L395.06 177.17L394.89 176.89L394.75 176.59L394.62 176.26L394.45 176.14L394.29 175.99L394.16 175.82L394.05 175.63L393.98 175.43L393.93 175.22L393.91 175L393.91 174.57L393.92 174.39L393.95 174.22L394.01 174.05L394.08 173.89L394.17 173.73L394.28 173.59L394.41 173.47L394.44 173.3L394.47 173.14L394.51 172.98L394.55 172.82L394.6 172.67L394.65 172.52L394.71 172.37L394.74 172.31L394.76 172.24L394.79 172.19L394.81 172.14L394.83 172.09L394.85 172.04L394.87 172L394.89 171.97L394.9 171.94L394.91 171.91L394.92 171.89L394.93 171.87L394.94 171.85L394.94 171.83L394.94 171.82L394.94 171.8L394.94 171.77L394.93 171.72L394.92 171.65L394.91 171.57L394.89 171.47L394.87 171.38L394.86 171.29L394.84 171.21L394.83 171.13L394.82 171.05L394.81 170.98L394.8 170.9L394.8 170.77L394.82 170.63L394.86 170.51L394.93 170.4L395.02 170.3L395.12 170.22L395.24 170.15L395.38 170.11L395.51 170.1L395.64 170.11L395.77 170.14ZM396.17 172.2L396.13 172.31L396.09 172.42L396.03 172.54L396.01 172.59L395.98 172.65L395.95 172.71L395.92 172.78L395.89 172.86L395.82 173.04L395.76 173.24L395.71 173.45L395.67 173.67L395.64 173.89L395.61 174.23L395.31 174.39L395.27 174.41L395.24 174.44L395.21 174.48L395.2 174.52L395.19 174.57L395.19 175L395.2 175.06L395.22 175.11L395.26 175.15L395.3 175.18L395.34 175.2L395.68 175.3L395.77 175.64L395.91 176.06L396.1 176.42L396.33 176.71L396.61 176.95L396.93 177.12L397.32 177.29L397.32 178.2L397.29 178.41L397.22 178.62L397.11 178.79L396.96 178.95L396.78 179.06L395.22 179.83L396.26 180.27L397.37 180.49L398.5 180.49L399.61 180.28L400.66 179.85L399.12 179.06L398.94 178.94L398.79 178.79L398.69 178.61L398.62 178.42L398.59 178.2L398.59 177.29L398.98 177.12L399.3 176.95L399.58 176.71L399.81 176.42L400 176.06L400.14 175.64L400.23 175.3L400.57 175.2L400.61 175.18L400.65 175.15L400.69 175.11L400.71 175.06L400.72 175L400.72 174.57L400.71 174.52L400.7 174.48L400.67 174.44L400.64 174.41L400.6 174.39L400.31 174.23L400.27 173.9L400.17 173.4L399.95 172.94L399.55 172.57L398.9 172.31L397.95 172.21L397.92 172.21L397.88 172.21L397.84 172.22L397.81 172.22L397.77 172.22L397.44 172.23L397.11 172.21L396.8 172.17L396.5 172.09L396.21 171.99L396.19 172.1L396.17 172.2ZM415.69 174.15L408.93 167.39L408.93 174.15L415.69 174.15Z" id="g23Oj2vljb"></path></defs><g><g><g><filter id="shadow16483495" x="363.5" y="147" width="76" height="78" filterUnits="userSpaceOnUse" primitiveUnits="userSpaceOnUse"><feFlood></feFlood><feComposite in2="SourceAlpha" operator="in"></feComposite><feGaussianBlur stdDeviation="1"></feGaussianBlur><feOffset dx="0" dy="2" result="afterOffset"></feOffset><feFlood flood-color="#000000" flood-opacity="0.5"></feFlood><feComposite in2="afterOffset" operator="in"></feComposite><feMorphology operator="dilate" radius="0"></feMorphology><feComposite in2="SourceAlpha" operator="out"></feComposite></filter><path d="M430.5 185C430.5 201.01 417.51 214 401.5 214C385.49 214 372.5 201.01 372.5 185C372.5 168.99 385.49 156 401.5 156C417.51 156 430.5 168.99 430.5 185Z" id="emN6hYmXE" fill="white" fill-opacity="1" filter="url(#shadow16483495)"></path></g><use xlink:href="#bvvFqnDtc" opacity="1" fill="#081018" fill-opacity="0.51"></use></g><g><use xlink:href="#a13E16u1dl" opacity="1" fill="#c9e4ff" fill-opacity="1"></use></g><g><use xlink:href="#g23Oj2vljb" opacity="1" fill="#000000" fill-opacity="1"></use><g><use xlink:href="#g23Oj2vljb" opacity="1" fill-opacity="0" stroke="#000000" stroke-width="1" stroke-opacity="0"></use></g></g></g></svg>