<?xml version="1.0" encoding="UTF-8" standalone="no"?>
<!DOCTYPE svg PUBLIC "-//W3C//DTD SVG 1.1//EN" "http://www.w3.org/Graphics/SVG/1.1/DTD/svg11.dtd">
<svg version="1.1" xmlns="http://www.w3.org/2000/svg" xmlns:xlink="http://www.w3.org/1999/xlink" preserveAspectRatio="xMidYMid meet" viewBox="181 215.99999999999997 66 68.00000000000003" width="58" height="59"><defs><path d="M243 247C243 263.01 230.01 276 214 276C197.99 276 185 263.01 185 247C185 230.99 197.99 218 214 218C230.01 218 243 230.99 243 247Z" id="ghCNkI7XI"></path><path d="M243 246C243 262.01 230.01 275 214 275C197.99 275 185 262.01 185 246C185 229.99 197.99 217 214 217C230.01 217 243 229.99 243 246Z" id="aGpbZ3JWS"></path><path d="M214.99 223.24L215.48 223.26L215.97 223.3L216.46 223.34L216.94 223.4L217.42 223.47L217.9 223.54L218.38 223.63L218.85 223.72L219.31 223.83L219.78 223.94L220.24 224.06L220.7 224.19L221.15 224.34L221.6 224.49L222.04 224.64L222.48 224.81L222.92 224.99L223.35 225.17L223.78 225.37L224.2 225.57L224.62 225.78L225.03 225.99L225.44 226.22L225.84 226.45L226.24 226.69L226.63 226.94L227.02 227.2L227.65 227.64L228.27 228.11L228.87 228.59L229.46 229.09L230.03 229.62L230.58 230.16L231.11 230.72L231.63 231.29L232.12 231.88L232.6 232.49L233.05 233.12L233.49 233.76L233.9 234.41L234.3 235.08L234.67 235.76L235.02 236.46L235.35 237.17L235.65 237.89L235.93 238.62L236.18 239.37L236.41 240.13L236.62 240.89L236.8 241.67L236.95 242.46L237.08 243.25L237.17 244.06L237.25 244.87L237.29 245.69L237.3 246.52L237.27 247.84L237.16 249.14L236.98 250.42L236.73 251.68L236.41 252.91L236.03 254.11L235.59 255.29L235.09 256.44L234.52 257.55L233.9 258.63L233.23 259.67L232.5 260.67L231.73 261.63L230.9 262.55L230.03 263.42L229.11 264.24L228.15 265.02L227.15 265.75L226.11 266.42L225.03 267.04L223.92 267.6L222.77 268.11L221.6 268.55L220.39 268.93L219.16 269.25L217.9 269.49L216.62 269.67L215.32 269.78L214 269.82L213.74 269.82L213.48 269.82L213.22 269.81L212.96 269.8L212.7 269.79L212.45 269.77L212.19 269.75L211.94 269.73L211.68 269.71L211.43 269.68L211.17 269.65L210.92 269.62L210.67 269.58L210.42 269.54L210.17 269.5L209.92 269.46L209.67 269.42L209.43 269.37L209.18 269.32L208.94 269.26L208.69 269.21L208.45 269.15L208.21 269.09L207.97 269.02L207.73 268.96L207.49 268.89L207.25 268.82L207.01 268.75L206.78 268.67L206.76 268.67L206.74 268.67L206.73 268.67L206.71 268.67L206.69 268.66L206.68 268.66L206.66 268.66L206.64 268.66L206.63 268.65L206.61 268.65L206.6 268.64L206.58 268.64L206.57 268.63L206.55 268.63L206.53 268.62L206.52 268.62L206.5 268.61L206.49 268.61L206.47 268.6L206.46 268.59L206.44 268.59L206.43 268.58L206.42 268.57L206.4 268.56L206.39 268.56L206.37 268.55L206.36 268.54L206.35 268.53L206.33 268.52L205.4 268.17L204.49 267.79L203.6 267.36L202.73 266.9L201.88 266.41L201.05 265.88L200.25 265.32L199.47 264.72L198.72 264.1L198 263.44L197.3 262.75L196.64 262.04L196 261.3L195.4 260.53L194.82 259.74L194.28 258.92L193.77 258.08L193.3 257.22L192.87 256.33L192.47 255.43L192.11 254.5L191.78 253.56L191.5 252.6L191.26 251.62L191.06 250.63L190.9 249.62L190.79 248.6L190.72 247.56L190.7 246.52L190.73 245.2L190.84 243.9L191.02 242.62L191.27 241.36L191.59 240.13L191.97 238.92L192.41 237.75L192.91 236.6L193.48 235.49L194.1 234.41L194.77 233.37L195.5 232.37L196.27 231.41L197.1 230.49L197.97 229.62L198.89 228.79L199.85 228.01L200.85 227.29L201.89 226.61L202.97 225.99L204.08 225.43L205.23 224.93L206.4 224.49L207.61 224.11L208.84 223.79L210.1 223.54L211.38 223.36L212.68 223.25L214 223.21L214.5 223.22L214.99 223.24ZM225.07 234.11L224.98 234.12L224.88 234.13L224.77 234.15L224.65 234.17L224.52 234.19L224.38 234.22L224.24 234.26L224.08 234.3L223.92 234.35L223.75 234.41L223.57 234.47L223.38 234.54L223.18 234.62L222.97 234.7L222.76 234.8L222.53 234.9L222.3 235.01L222.05 235.14L221.8 235.27L221.54 235.42L221.27 235.57L220.99 235.74L220.7 235.92L220.4 236.12L220.09 236.32L220.07 236.34L220.04 236.35L220.02 236.36L220 236.37L219.97 236.39L219.95 236.4L219.93 236.41L219.9 236.41L219.88 236.42L219.85 236.43L219.83 236.44L219.8 236.44L219.78 236.45L219.75 236.45L219.73 236.45L219.7 236.46L219.68 236.46L219.65 236.46L219.63 236.46L219.6 236.46L219.57 236.46L219.55 236.46L219.52 236.45L219.5 236.45L219.47 236.44L219.45 236.44L219.42 236.43L219.23 236.38L219.04 236.33L218.85 236.28L218.66 236.24L218.47 236.19L218.27 236.15L218.08 236.11L217.88 236.07L217.68 236.04L217.48 236L217.28 235.97L217.08 235.94L216.88 235.91L216.68 235.88L216.47 235.86L216.27 235.83L216.06 235.81L215.86 235.79L215.65 235.77L215.45 235.76L215.24 235.74L215.04 235.73L214.83 235.72L214.62 235.72L214.41 235.71L214.21 235.71L214 235.7L213.79 235.71L213.59 235.71L213.38 235.72L213.17 235.72L212.97 235.73L212.76 235.74L212.55 235.76L212.35 235.77L212.14 235.79L211.94 235.81L211.73 235.83L211.53 235.86L211.33 235.88L211.13 235.91L210.92 235.94L210.72 235.97L210.52 236L210.32 236.04L210.13 236.07L209.93 236.11L209.73 236.15L209.54 236.19L209.35 236.24L209.15 236.28L208.96 236.33L208.77 236.38L208.59 236.43L208.56 236.44L208.54 236.44L208.51 236.45L208.48 236.45L208.46 236.46L208.43 236.46L208.41 236.46L208.38 236.46L208.36 236.46L208.33 236.46L208.31 236.46L208.28 236.45L208.25 236.45L208.23 236.45L208.2 236.44L208.18 236.44L208.15 236.43L208.13 236.42L208.11 236.41L208.08 236.41L208.06 236.4L208.03 236.39L208.01 236.37L207.99 236.36L207.96 236.35L207.94 236.34L207.92 236.32L207.61 236.12L207.31 235.92L207.03 235.74L206.75 235.58L206.48 235.42L206.22 235.28L205.96 235.14L205.72 235.02L205.49 234.9L205.26 234.8L205.05 234.71L204.84 234.62L204.64 234.54L204.45 234.47L204.27 234.41L204.1 234.35L203.94 234.31L203.78 234.26L203.63 234.23L203.5 234.2L203.37 234.17L203.25 234.15L203.13 234.13L203.03 234.12L202.93 234.11L202.84 234.11L202.76 234.1L202.67 234.38L202.6 234.66L202.53 234.92L202.47 235.18L202.42 235.44L202.39 235.69L202.36 235.93L202.33 236.16L202.32 236.39L202.31 236.61L202.31 236.82L202.32 237.02L202.33 237.21L202.34 237.4L202.36 237.58L202.38 237.75L202.41 237.91L202.44 238.06L202.47 238.21L202.5 238.34L202.53 238.46L202.56 238.58L202.6 238.68L202.63 238.78L202.66 238.86L202.68 238.94L202.71 239L202.72 239.03L202.73 239.06L202.74 239.1L202.75 239.13L202.76 239.16L202.76 239.2L202.77 239.23L202.77 239.26L202.77 239.3L202.77 239.33L202.77 239.36L202.76 239.4L202.76 239.43L202.75 239.46L202.75 239.49L202.74 239.53L202.73 239.56L202.72 239.59L202.71 239.62L202.69 239.65L202.68 239.68L202.66 239.71L202.64 239.74L202.62 239.77L202.6 239.79L202.58 239.82L202.56 239.85L202.41 240.02L202.26 240.19L202.12 240.37L201.98 240.55L201.85 240.73L201.73 240.91L201.61 241.1L201.5 241.29L201.39 241.48L201.29 241.67L201.2 241.87L201.11 242.07L201.02 242.27L200.95 242.47L200.87 242.68L200.81 242.89L200.75 243.1L200.69 243.31L200.64 243.53L200.6 243.75L200.56 243.97L200.53 244.19L200.5 244.42L200.48 244.64L200.47 244.87L200.46 245.11L200.46 245.34L200.47 246.22L200.53 247.04L200.63 247.82L200.76 248.55L200.92 249.23L201.11 249.86L201.34 250.45L201.6 251L201.88 251.51L202.19 251.98L202.52 252.42L202.88 252.82L203.26 253.18L203.66 253.51L204.07 253.82L204.51 254.09L204.96 254.33L205.42 254.56L205.9 254.75L206.39 254.93L206.88 255.08L207.39 255.21L207.9 255.33L208.42 255.43L208.94 255.52L209.47 255.6L209.99 255.66L210.02 255.67L210.06 255.67L210.09 255.68L210.13 255.69L210.16 255.7L210.19 255.71L210.22 255.72L210.25 255.74L210.28 255.75L210.31 255.77L210.34 255.79L210.37 255.81L210.4 255.83L210.42 255.85L210.45 255.87L210.47 255.9L210.5 255.92L210.52 255.95L210.54 255.97L210.56 256L210.58 256.03L210.6 256.06L210.61 256.09L210.63 256.12L210.64 256.15L210.65 256.19L210.67 256.22L210.67 256.25L210.68 256.29L210.69 256.32L210.7 256.36L210.7 256.39L210.7 256.42L210.7 256.46L210.7 256.49L210.7 256.53L210.7 256.56L210.69 256.59L210.68 256.63L210.68 256.66L210.67 256.69L210.66 256.72L210.64 256.76L210.63 256.79L210.62 256.82L210.6 256.85L210.58 256.88L210.57 256.91L210.55 256.94L210.52 256.96L210.5 256.99L210.48 257.01L210.45 257.04L210.43 257.06L210.35 257.13L210.28 257.2L210.19 257.28L210.11 257.37L210.02 257.46L209.93 257.56L209.84 257.67L209.74 257.78L209.65 257.89L209.55 258.01L209.45 258.14L209.36 258.26L209.27 258.39L209.17 258.52L209.08 258.66L209 258.79L208.91 258.93L208.83 259.07L208.76 259.21L208.69 259.35L208.62 259.49L208.56 259.62L208.51 259.76L208.46 259.9L208.42 260.03L208.39 260.16L208.37 260.29L208.36 260.32L208.36 260.35L208.35 260.38L208.34 260.41L208.33 260.44L208.32 260.47L208.31 260.5L208.3 260.52L208.29 260.55L208.27 260.58L208.26 260.6L208.24 260.63L208.22 260.65L208.21 260.67L208.19 260.7L208.17 260.72L208.15 260.74L208.12 260.76L208.1 260.78L208.08 260.8L208.06 260.82L208.03 260.84L208.01 260.85L207.98 260.87L207.95 260.89L207.93 260.9L207.9 260.91L207.69 261L207.47 261.08L207.23 261.15L206.98 261.21L206.73 261.26L206.46 261.3L206.19 261.32L205.9 261.33L205.62 261.33L205.32 261.32L205.03 261.28L204.73 261.24L204.42 261.17L204.12 261.09L203.81 260.98L203.51 260.86L203.2 260.72L202.9 260.56L202.6 260.37L202.3 260.16L202.01 259.93L201.73 259.68L201.45 259.4L201.18 259.09L200.92 258.75L200.67 258.39L200.43 258L200.42 257.99L200.41 257.98L200.39 257.95L200.37 257.91L200.34 257.87L200.31 257.82L200.27 257.77L200.23 257.7L200.18 257.64L200.12 257.56L200.06 257.49L199.99 257.41L199.92 257.32L199.84 257.24L199.76 257.15L199.67 257.07L199.58 256.98L199.48 256.89L199.38 256.81L199.27 256.72L199.15 256.64L199.03 256.56L198.91 256.49L198.78 256.42L198.65 256.35L198.51 256.29L198.37 256.24L198.44 256.29L198.51 256.35L198.58 256.41L198.66 256.48L198.74 256.55L198.83 256.62L198.91 256.71L199 256.79L199.09 256.89L199.18 256.98L199.27 257.09L199.36 257.2L199.46 257.32L199.55 257.44L199.65 257.57L199.74 257.7L199.84 257.84L199.93 257.99L200.03 258.15L200.12 258.31L200.22 258.48L200.31 258.65L200.41 258.84L200.5 259.03L200.59 259.22L200.68 259.43L200.76 259.64L200.77 259.65L200.77 259.66L200.77 259.67L200.78 259.69L200.78 259.71L200.78 259.71L200.79 259.73L200.8 259.76L200.82 259.82L200.85 259.91L200.89 260.02L200.95 260.15L201.02 260.29L201.11 260.45L201.21 260.63L201.32 260.81L201.46 261L201.61 261.19L201.79 261.38L201.98 261.58L202.2 261.76L202.44 261.94L202.7 262.12L202.99 262.28L203.3 262.42L203.64 262.55L204 262.65L204.4 262.74L204.82 262.8L205.27 262.83L205.75 262.82L206.27 262.79L206.82 262.72L207.4 262.61L207.43 262.6L207.45 262.6L207.48 262.6L207.51 262.59L207.53 262.59L207.56 262.59L207.59 262.59L207.61 262.59L207.64 262.59L207.67 262.6L207.69 262.6L207.72 262.6L207.74 262.61L207.77 262.61L207.79 262.62L207.82 262.63L207.84 262.64L207.87 262.65L207.89 262.66L207.92 262.67L207.94 262.68L207.96 262.69L207.99 262.71L208.01 262.72L208.03 262.73L208.05 262.75L208.07 262.77L208.09 262.78L208.11 262.8L208.13 262.82L208.15 262.84L208.17 262.86L208.19 262.88L208.2 262.9L208.22 262.92L208.24 262.94L208.25 262.96L208.26 262.98L208.28 263.01L208.29 263.03L208.3 263.05L208.31 263.08L208.32 263.1L208.33 263.13L208.34 263.15L208.35 263.18L208.35 263.2L208.36 263.23L208.36 263.26L208.37 263.28L208.37 263.31L208.37 263.33L208.37 263.36L208.37 263.39L208.38 263.53L208.38 263.67L208.38 263.8L208.38 263.93L208.38 264.05L208.38 264.16L208.38 264.27L208.38 264.37L208.38 264.46L208.38 264.56L208.38 264.64L208.38 264.73L208.38 264.81L208.38 264.88L208.38 264.95L208.38 265.02L208.38 265.08L208.38 265.14L208.38 265.2L208.38 265.25L208.38 265.3L208.38 265.35L208.38 265.4L208.38 265.45L208.38 265.49L208.37 265.57L208.37 266L208.37 266.02L208.37 266.03L208.37 266.05L208.37 266.08L208.37 266.11L208.37 266.14L208.36 266.18L208.36 266.22L208.36 266.27L208.35 266.31L208.35 266.37L208.34 266.42L208.34 266.48L208.33 266.54L208.32 266.61L208.31 266.67L208.3 266.74L208.29 266.81L208.27 266.88L208.26 266.95L208.24 267.02L208.22 267.1L208.2 267.17L208.18 267.25L208.16 267.33L208.13 267.4L208.34 267.46L208.55 267.51L208.76 267.57L208.97 267.62L209.18 267.67L209.39 267.72L209.6 267.76L209.82 267.8L210.03 267.85L210.25 267.89L210.46 267.92L210.68 267.96L210.9 267.99L211.11 268.02L211.33 268.05L211.55 268.07L211.77 268.1L211.99 268.12L212.21 268.14L212.43 268.16L212.65 268.17L212.88 268.19L213.1 268.2L213.32 268.2L213.55 268.21L213.77 268.21L214 268.21L214.23 268.21L214.45 268.21L214.67 268.2L214.9 268.2L215.12 268.19L215.34 268.17L215.56 268.16L215.79 268.14L216.01 268.12L216.23 268.1L216.45 268.08L216.66 268.05L216.88 268.02L217.1 267.99L217.32 267.96L217.53 267.92L217.75 267.89L217.96 267.85L218.17 267.81L218.39 267.76L218.6 267.72L218.81 267.67L219.02 267.62L219.23 267.57L219.44 267.52L219.65 267.46L219.86 267.4L219.83 267.33L219.81 267.25L219.79 267.18L219.77 267.1L219.75 267.03L219.74 266.95L219.72 266.88L219.71 266.81L219.7 266.74L219.68 266.67L219.67 266.61L219.67 266.55L219.66 266.49L219.65 266.43L219.65 266.37L219.64 266.32L219.64 266.27L219.63 266.22L219.63 266.18L219.63 266.14L219.63 266.11L219.63 266.08L219.62 266.06L219.62 266.04L219.62 266.02L219.62 266.01L219.63 261.79L219.62 261.58L219.6 261.37L219.57 261.16L219.54 260.94L219.49 260.73L219.44 260.51L219.37 260.29L219.31 260.08L219.23 259.86L219.15 259.65L219.06 259.44L218.97 259.23L218.88 259.03L218.78 258.83L218.68 258.64L218.58 258.46L218.48 258.28L218.37 258.11L218.27 257.95L218.17 257.8L218.07 257.65L217.98 257.52L217.88 257.4L217.79 257.29L217.71 257.2L217.63 257.12L217.56 257.05L217.53 257.02L217.5 257L217.48 256.97L217.46 256.95L217.44 256.92L217.42 256.89L217.4 256.86L217.38 256.83L217.36 256.8L217.35 256.77L217.34 256.74L217.32 256.71L217.31 256.68L217.3 256.64L217.3 256.61L217.29 256.58L217.28 256.54L217.28 256.51L217.28 256.48L217.28 256.44L217.28 256.41L217.28 256.37L217.28 256.34L217.29 256.3L217.3 256.27L217.3 256.24L217.31 256.2L217.32 256.17L217.34 256.14L217.35 256.1L217.37 256.07L217.38 256.04L217.4 256.01L217.42 255.98L217.44 255.96L217.46 255.93L217.48 255.9L217.51 255.88L217.53 255.85L217.56 255.83L217.58 255.81L217.61 255.79L217.64 255.77L217.67 255.75L217.7 255.73L217.73 255.72L217.76 255.7L217.79 255.69L217.82 255.68L217.85 255.67L217.89 255.66L217.92 255.65L217.96 255.65L217.99 255.64L218.52 255.58L219.04 255.5L219.56 255.42L220.08 255.32L220.6 255.2L221.1 255.07L221.6 254.92L222.09 254.74L222.57 254.55L223.04 254.33L223.49 254.08L223.92 253.81L224.34 253.51L224.74 253.18L225.12 252.81L225.48 252.42L225.81 251.98L226.12 251.51L226.41 251L226.66 250.46L226.89 249.86L227.08 249.23L227.25 248.55L227.38 247.82L227.47 247.04L227.53 246.22L227.55 245.34L227.55 245.11L227.54 244.87L227.52 244.64L227.5 244.41L227.48 244.19L227.45 243.97L227.41 243.75L227.36 243.53L227.31 243.31L227.26 243.1L227.2 242.89L227.13 242.68L227.06 242.47L226.98 242.27L226.9 242.07L226.81 241.87L226.71 241.67L226.61 241.48L226.51 241.28L226.39 241.1L226.28 240.91L226.15 240.73L226.02 240.54L225.89 240.37L225.75 240.19L225.6 240.02L225.45 239.85L225.43 239.82L225.41 239.79L225.39 239.77L225.37 239.74L225.35 239.71L225.33 239.68L225.32 239.65L225.3 239.62L225.29 239.59L225.28 239.56L225.27 239.53L225.26 239.49L225.25 239.46L225.25 239.43L225.24 239.4L225.24 239.36L225.24 239.33L225.24 239.3L225.24 239.26L225.24 239.23L225.25 239.2L225.25 239.16L225.26 239.13L225.27 239.1L225.27 239.07L225.29 239.03L225.3 239L225.32 238.94L225.35 238.86L225.38 238.78L225.41 238.68L225.44 238.58L225.48 238.46L225.51 238.34L225.54 238.21L225.57 238.06L225.6 237.91L225.62 237.75L225.64 237.58L225.66 237.4L225.68 237.21L225.69 237.02L225.69 236.81L225.69 236.6L225.68 236.38L225.67 236.16L225.65 235.92L225.62 235.68L225.58 235.43L225.53 235.18L225.47 234.92L225.41 234.65L225.33 234.38L225.24 234.1L225.16 234.1L225.07 234.11ZM212.22 224.89L211.35 224.98L210.49 225.11L209.63 225.26L208.79 225.45L207.96 225.68L207.15 225.93L206.35 226.21L205.56 226.53L204.79 226.87L204.04 227.25L203.3 227.65L202.58 228.08L201.88 228.53L201.19 229.01L200.53 229.52L199.89 230.05L199.27 230.61L198.67 231.18L198.09 231.78L197.53 232.41L197 233.05L196.5 233.71L196.01 234.4L195.56 235.1L195.13 235.82L194.73 236.56L194.36 237.31L194.01 238.08L193.7 238.87L193.41 239.67L193.16 240.48L192.94 241.31L192.75 242.15L192.59 243L192.46 243.87L192.38 244.74L192.32 245.62L192.3 246.52L192.31 247.22L192.35 247.91L192.4 248.6L192.48 249.28L192.58 249.96L192.69 250.63L192.83 251.29L192.99 251.94L193.17 252.59L193.37 253.23L193.58 253.86L193.82 254.48L194.07 255.09L194.34 255.69L194.63 256.29L194.94 256.87L195.26 257.44L195.6 258L195.96 258.55L196.33 259.09L196.72 259.62L197.12 260.13L197.54 260.63L197.97 261.12L198.42 261.6L198.88 262.06L199.35 262.51L199.84 262.94L200.34 263.36L200.85 263.76L201.38 264.15L201.91 264.53L202.46 264.88L203.02 265.22L203.59 265.55L204.18 265.86L204.77 266.15L205.37 266.42L205.98 266.68L206.6 266.91L206.61 266.89L206.61 266.87L206.62 266.85L206.63 266.83L206.63 266.81L206.64 266.79L206.65 266.77L206.65 266.74L206.66 266.72L206.66 266.7L206.67 266.68L206.68 266.65L206.68 266.63L206.69 266.61L206.69 266.58L206.7 266.56L206.7 266.53L206.71 266.51L206.71 266.48L206.72 266.46L206.72 266.44L206.73 266.41L206.73 266.39L206.73 266.36L206.74 266.34L206.74 266.31L206.74 266.29L206.75 266.27L206.75 266.24L206.75 266.22L206.76 266.2L206.76 266.17L206.76 266.15L206.76 266.13L206.76 266.11L206.76 266.09L206.76 266.06L206.77 266.04L206.77 266.02L206.77 266L206.77 265.56L206.77 265.54L206.77 265.48L206.77 265.39L206.77 265.37L206.77 265.35L206.77 265.33L206.77 265.3L206.77 265.28L206.77 265.25L206.77 265.23L206.77 265.18L206.77 265.12L206.77 265.07L206.77 265.04L206.77 264.97L206.77 264.91L206.77 264.84L206.77 264.81L206.77 264.73L206.77 264.69L206.77 264.61L206.77 264.53L206.77 264.49L206.77 264.44L206.77 264.4L206.77 264.35L206.35 264.4L205.94 264.43L205.55 264.44L205.17 264.43L204.81 264.41L204.46 264.38L204.13 264.33L203.81 264.27L203.5 264.19L203.21 264.1L202.93 264.01L202.66 263.9L202.4 263.78L202.16 263.66L201.92 263.52L201.7 263.38L201.5 263.24L201.3 263.09L201.11 262.94L200.94 262.78L200.77 262.62L200.61 262.46L200.47 262.29L200.33 262.13L200.21 261.97L200.09 261.81L199.98 261.65L199.88 261.5L199.79 261.35L199.7 261.2L199.63 261.06L199.56 260.93L199.5 260.81L199.45 260.69L199.4 260.58L199.36 260.48L199.33 260.4L199.3 260.32L199.28 260.26L199.26 260.21L199.19 260.05L199.13 259.89L199.06 259.74L198.99 259.59L198.92 259.46L198.85 259.32L198.78 259.19L198.71 259.07L198.64 258.95L198.57 258.84L198.5 258.73L198.43 258.63L198.36 258.53L198.29 258.44L198.23 258.35L198.16 258.27L198.09 258.19L198.03 258.11L197.97 258.04L197.9 257.97L197.84 257.91L197.79 257.85L197.73 257.8L197.67 257.75L197.62 257.7L197.57 257.65L197.52 257.61L197.48 257.58L197.43 257.54L197.39 257.51L197.35 257.49L197.32 257.46L197.29 257.44L197.26 257.42L197.24 257.41L197.21 257.39L197.2 257.38L197.18 257.38L197.17 257.37L197.16 257.36L197.14 257.36L197.13 257.35L197.11 257.34L197.09 257.33L197.08 257.32L197.07 257.31L197.03 257.29L197 257.26L196.96 257.24L196.92 257.21L196.88 257.18L196.84 257.15L196.79 257.12L196.75 257.08L196.7 257.05L196.66 257.01L196.61 256.98L196.56 256.94L196.52 256.9L196.47 256.86L196.43 256.81L196.38 256.77L196.34 256.72L196.29 256.68L196.25 256.63L196.21 256.58L196.17 256.53L196.13 256.48L196.09 256.43L196.05 256.38L196.02 256.32L195.99 256.27L195.96 256.21L195.94 256.15L195.91 256.09L195.89 256.03L195.88 255.97L195.86 255.91L195.85 255.85L195.85 255.78L195.84 255.72L195.85 255.65L195.85 255.59L195.86 255.52L195.88 255.45L195.9 255.38L195.92 255.32L195.94 255.26L195.97 255.21L196 255.15L196.03 255.1L196.06 255.06L196.1 255.01L196.14 254.97L196.18 254.93L196.23 254.89L196.27 254.85L196.32 254.82L196.36 254.79L196.41 254.76L196.46 254.73L196.51 254.7L196.57 254.68L196.62 254.66L196.67 254.64L196.73 254.62L196.78 254.6L196.83 254.58L196.89 254.57L196.94 254.55L197 254.54L197.05 254.53L197.1 254.52L197.16 254.51L197.21 254.51L197.26 254.5L197.31 254.49L197.36 254.49L197.4 254.49L197.45 254.48L197.49 254.48L197.53 254.48L197.57 254.48L197.61 254.48L197.65 254.48L197.68 254.47L197.88 254.49L198.08 254.52L198.27 254.55L198.46 254.59L198.64 254.64L198.81 254.7L198.98 254.76L199.15 254.82L199.31 254.89L199.46 254.97L199.62 255.05L199.76 255.13L199.9 255.22L200.04 255.3L200.17 255.4L200.29 255.49L200.42 255.58L200.53 255.68L200.64 255.78L200.75 255.87L200.85 255.97L200.94 256.07L201.04 256.16L201.12 256.26L201.2 256.35L201.28 256.44L201.35 256.53L201.42 256.61L201.48 256.69L201.53 256.77L201.58 256.84L201.63 256.9L201.67 256.96L201.71 257.02L201.74 257.07L201.77 257.11L201.79 257.15L201.81 257.18L201.82 257.2L201.82 257.21L201.94 257.41L202.07 257.59L202.19 257.77L202.32 257.94L202.45 258.1L202.58 258.25L202.71 258.39L202.84 258.52L202.98 258.64L203.12 258.76L203.26 258.87L203.39 258.97L203.53 259.06L203.67 259.15L203.81 259.23L203.95 259.3L204.1 259.36L204.24 259.42L204.38 259.47L204.51 259.52L204.65 259.56L204.79 259.6L204.93 259.63L205.06 259.66L205.19 259.68L205.33 259.69L205.46 259.7L205.58 259.71L205.71 259.72L205.83 259.72L205.95 259.72L206.07 259.71L206.18 259.7L206.29 259.69L206.4 259.67L206.5 259.66L206.6 259.64L206.7 259.62L206.79 259.6L206.88 259.57L206.9 259.51L206.92 259.44L206.94 259.37L206.97 259.3L206.99 259.23L207.02 259.16L207.04 259.09L207.07 259.02L207.1 258.96L207.13 258.89L207.16 258.82L207.19 258.75L207.22 258.68L207.26 258.62L207.29 258.55L207.32 258.48L207.36 258.42L207.39 258.35L207.43 258.29L207.47 258.22L207.5 258.16L207.54 258.09L207.58 258.03L207.62 257.97L207.66 257.91L207.7 257.84L207.74 257.78L207.78 257.72L207.82 257.66L207.86 257.6L207.9 257.54L207.94 257.48L207.98 257.42L208.03 257.37L208.07 257.31L208.11 257.25L208.15 257.2L208.19 257.14L208.24 257.09L208.28 257.04L207.94 256.97L207.61 256.91L207.27 256.83L206.94 256.75L206.6 256.66L206.27 256.56L205.93 256.46L205.6 256.34L205.27 256.22L204.94 256.08L204.61 255.94L204.29 255.78L203.97 255.61L203.66 255.44L203.35 255.25L203.05 255.04L202.75 254.83L202.46 254.6L202.18 254.36L201.9 254.1L201.64 253.83L201.38 253.55L201.13 253.24L200.89 252.93L200.67 252.59L200.45 252.24L200.24 251.88L200.05 251.49L199.87 251.09L199.7 250.67L199.55 250.23L199.4 249.77L199.28 249.29L199.17 248.79L199.07 248.27L198.99 247.72L198.93 247.16L198.89 246.58L198.86 245.97L198.85 245.34L198.85 245.16L198.85 244.99L198.86 244.81L198.87 244.64L198.88 244.46L198.9 244.29L198.92 244.12L198.94 243.95L198.96 243.78L198.99 243.62L199.02 243.45L199.05 243.29L199.08 243.12L199.12 242.96L199.16 242.8L199.2 242.64L199.25 242.48L199.3 242.32L199.35 242.16L199.4 242L199.46 241.85L199.52 241.7L199.58 241.54L199.65 241.39L199.71 241.24L199.78 241.09L199.86 240.94L199.93 240.8L200.01 240.65L200.09 240.51L200.18 240.36L200.26 240.22L200.35 240.08L200.44 239.94L200.54 239.8L200.64 239.66L200.74 239.53L200.84 239.39L200.95 239.26L201.05 239.13L201.03 239.05L201 238.96L200.98 238.87L200.96 238.78L200.93 238.68L200.91 238.58L200.89 238.47L200.86 238.36L200.84 238.24L200.82 238.13L200.8 238L200.78 237.88L200.77 237.75L200.75 237.61L200.74 237.48L200.73 237.34L200.72 237.19L200.72 237.05L200.71 236.9L200.71 236.74L200.71 236.58L200.72 236.42L200.72 236.26L200.73 236.09L200.75 235.92L200.76 235.75L200.78 235.58L200.81 235.4L200.84 235.22L200.87 235.03L200.9 234.84L200.94 234.66L200.99 234.46L201.04 234.27L201.09 234.07L201.15 233.87L201.22 233.67L201.29 233.47L201.36 233.26L201.44 233.05L201.45 233.03L201.45 233.02L201.46 233L201.47 232.99L201.48 232.97L201.49 232.95L201.5 232.94L201.5 232.92L201.51 232.91L201.52 232.89L201.53 232.88L201.54 232.87L201.56 232.85L201.57 232.84L201.58 232.82L201.59 232.81L201.6 232.8L201.61 232.79L201.63 232.77L201.64 232.76L201.65 232.75L201.66 232.74L201.68 232.73L201.69 232.71L201.71 232.7L201.72 232.69L201.73 232.68L201.75 232.67L201.76 232.66L201.78 232.66L201.8 232.65L201.81 232.64L201.83 232.63L201.84 232.62L201.86 232.61L201.88 232.61L201.89 232.6L201.91 232.59L201.93 232.59L201.94 232.58L201.96 232.58L201.99 232.57L202.02 232.56L202.07 232.55L202.11 232.54L202.17 232.53L202.23 232.52L202.3 232.51L202.38 232.51L202.46 232.5L202.55 232.5L202.65 232.49L202.76 232.5L202.87 232.5L202.99 232.51L203.12 232.52L203.26 232.53L203.4 232.55L203.55 232.57L203.71 232.6L203.87 232.64L204.05 232.68L204.23 232.72L204.42 232.77L204.61 232.83L204.82 232.9L205.03 232.97L205.25 233.06L205.48 233.15L205.71 233.24L205.96 233.35L206.21 233.47L206.47 233.6L206.74 233.73L207.01 233.88L207.3 234.04L207.59 234.21L207.89 234.39L208.2 234.58L208.52 234.78L208.65 234.75L208.78 234.72L208.91 234.69L209.04 234.66L209.17 234.63L209.31 234.6L209.44 234.57L209.57 234.54L209.7 234.51L209.84 234.49L209.97 234.46L210.11 234.44L210.24 234.42L210.38 234.39L210.51 234.37L210.65 234.35L210.79 234.33L210.92 234.31L211.06 234.29L211.2 234.28L211.33 234.26L211.47 234.24L211.61 234.23L211.75 234.21L211.89 234.2L212.03 234.19L212.17 234.17L212.31 234.16L212.45 234.15L212.59 234.14L212.73 234.14L212.87 234.13L213.01 234.12L213.15 234.11L213.29 234.11L213.43 234.1L213.57 234.1L213.72 234.1L213.86 234.1L214 234.1L214.14 234.1L214.29 234.1L214.43 234.1L214.57 234.1L214.71 234.11L214.86 234.11L215 234.12L215.14 234.13L215.28 234.13L215.42 234.14L215.56 234.15L215.7 234.16L215.84 234.17L215.98 234.19L216.12 234.2L216.26 234.21L216.4 234.23L216.54 234.24L216.67 234.26L216.81 234.27L216.95 234.29L217.09 234.31L217.22 234.33L217.36 234.35L217.5 234.37L217.63 234.39L217.77 234.42L217.9 234.44L218.04 234.46L218.17 234.49L218.3 234.51L218.44 234.54L218.57 234.57L218.7 234.6L218.84 234.63L218.97 234.66L219.1 234.69L219.23 234.72L219.36 234.75L219.49 234.78L219.81 234.58L220.12 234.39L220.42 234.21L220.71 234.04L221 233.88L221.27 233.73L221.54 233.6L221.8 233.47L222.05 233.35L222.3 233.24L222.53 233.15L222.76 233.06L222.98 232.97L223.19 232.9L223.4 232.83L223.59 232.77L223.78 232.72L223.96 232.68L224.14 232.64L224.3 232.6L224.46 232.57L224.61 232.55L224.75 232.53L224.89 232.52L225.02 232.51L225.14 232.5L225.25 232.5L225.36 232.5L225.46 232.5L225.55 232.5L225.63 232.51L225.71 232.51L225.78 232.52L225.84 232.53L225.89 232.54L225.94 232.55L225.98 232.56L226.02 232.57L226.05 232.58L226.07 232.58L226.08 232.59L226.1 232.59L226.12 232.6L226.13 232.61L226.15 232.61L226.17 232.62L226.18 232.63L226.2 232.64L226.21 232.65L226.23 232.66L226.24 232.66L226.26 232.67L226.27 232.68L226.29 232.69L226.3 232.7L226.32 232.71L226.33 232.73L226.34 232.74L226.36 232.75L226.37 232.76L226.38 232.77L226.39 232.79L226.41 232.8L226.42 232.81L226.43 232.82L226.44 232.84L226.45 232.85L226.46 232.87L226.47 232.88L226.48 232.89L226.49 232.91L226.5 232.92L226.51 232.94L226.52 232.95L226.53 232.97L226.54 232.99L226.55 233L226.55 233.02L226.56 233.03L226.57 233.05L226.65 233.26L226.72 233.47L226.79 233.67L226.86 233.87L226.92 234.07L226.97 234.27L227.02 234.46L227.06 234.65L227.1 234.84L227.14 235.03L227.17 235.21L227.2 235.4L227.22 235.57L227.24 235.75L227.26 235.92L227.28 236.09L227.29 236.26L227.29 236.42L227.3 236.58L227.3 236.74L227.3 236.89L227.29 237.04L227.29 237.19L227.28 237.34L227.27 237.48L227.25 237.61L227.24 237.75L227.22 237.88L227.21 238L227.19 238.12L227.17 238.24L227.15 238.36L227.12 238.47L227.1 238.57L227.08 238.68L227.05 238.78L227.03 238.87L227.01 238.96L226.98 239.05L226.96 239.13L227.07 239.26L227.17 239.39L227.27 239.53L227.37 239.66L227.47 239.8L227.57 239.94L227.66 240.08L227.75 240.22L227.83 240.36L227.92 240.5L228 240.65L228.08 240.8L228.15 240.94L228.23 241.09L228.3 241.24L228.36 241.39L228.43 241.54L228.49 241.69L228.55 241.85L228.61 242L228.66 242.16L228.71 242.32L228.76 242.47L228.81 242.63L228.85 242.8L228.89 242.96L228.93 243.12L228.96 243.28L228.99 243.45L229.02 243.62L229.05 243.78L229.07 243.95L229.09 244.12L229.11 244.29L229.12 244.46L229.14 244.64L229.15 244.81L229.15 244.99L229.16 245.16L229.16 245.34L229.15 245.97L229.12 246.59L229.08 247.18L229.01 247.74L228.93 248.29L228.83 248.81L228.72 249.32L228.59 249.8L228.45 250.26L228.29 250.7L228.12 251.13L227.94 251.53L227.74 251.92L227.53 252.29L227.31 252.64L227.08 252.97L226.84 253.29L226.58 253.59L226.32 253.87L226.05 254.14L225.77 254.4L225.49 254.64L225.19 254.87L224.89 255.08L224.59 255.28L224.27 255.47L223.95 255.65L223.63 255.81L223.31 255.97L222.98 256.11L222.64 256.24L222.31 256.36L221.97 256.48L221.63 256.58L221.29 256.68L220.95 256.76L220.61 256.84L220.27 256.92L219.94 256.98L219.6 257.04L219.66 257.13L219.72 257.23L219.78 257.33L219.84 257.43L219.9 257.53L219.96 257.63L220.02 257.74L220.08 257.84L220.14 257.95L220.2 258.06L220.25 258.18L220.31 258.29L220.37 258.41L220.42 258.52L220.47 258.64L220.52 258.76L220.58 258.88L220.63 259L220.67 259.12L220.72 259.24L220.77 259.37L220.81 259.49L220.85 259.62L220.89 259.74L220.93 259.87L220.97 260L221 260.12L221.03 260.25L221.06 260.38L221.09 260.51L221.12 260.64L221.14 260.76L221.16 260.89L221.18 261.02L221.2 261.15L221.21 261.28L221.22 261.41L221.23 261.53L221.23 261.66L221.23 261.79L221.23 266.01L221.23 266.03L221.23 266.05L221.23 266.07L221.23 266.09L221.23 266.11L221.24 266.13L221.24 266.16L221.24 266.18L221.24 266.2L221.24 266.22L221.25 266.25L221.25 266.27L221.25 266.29L221.26 266.32L221.26 266.34L221.26 266.37L221.27 266.39L221.27 266.42L221.27 266.44L221.28 266.46L221.28 266.49L221.29 266.51L221.29 266.54L221.3 266.56L221.3 266.58L221.31 266.61L221.31 266.63L221.32 266.66L221.32 266.68L221.33 266.7L221.34 266.73L221.34 266.75L221.35 266.77L221.35 266.79L221.36 266.81L221.37 266.84L221.37 266.86L221.38 266.88L221.38 266.9L221.39 266.92L222.01 266.68L222.62 266.43L223.23 266.15L223.82 265.86L224.4 265.55L224.97 265.23L225.53 264.89L226.08 264.53L226.62 264.16L227.14 263.77L227.66 263.36L228.16 262.95L228.64 262.51L229.12 262.06L229.58 261.6L230.03 261.13L230.46 260.64L230.88 260.14L231.28 259.62L231.67 259.09L232.04 258.56L232.4 258.01L232.74 257.45L233.06 256.87L233.37 256.29L233.66 255.7L233.93 255.1L234.18 254.48L234.42 253.86L234.63 253.23L234.83 252.59L235.01 251.95L235.17 251.29L235.31 250.63L235.42 249.96L235.52 249.28L235.6 248.6L235.65 247.91L235.69 247.22L235.7 246.52L235.68 245.62L235.62 244.74L235.54 243.87L235.41 243L235.25 242.15L235.06 241.31L234.84 240.48L234.59 239.67L234.3 238.87L233.99 238.08L233.64 237.31L233.27 236.56L232.87 235.82L232.44 235.1L231.99 234.4L231.5 233.71L231 233.05L230.47 232.41L229.91 231.78L229.33 231.18L228.73 230.61L228.11 230.05L227.47 229.52L226.81 229.01L226.12 228.53L225.42 228.08L224.7 227.65L223.96 227.25L223.21 226.87L222.44 226.53L221.65 226.21L220.85 225.93L220.04 225.68L219.21 225.45L218.37 225.26L217.51 225.11L216.65 224.98L215.78 224.89L214.89 224.84L214 224.82L213.11 224.84L212.22 224.89Z" id="frVjE6Sh1"></path></defs><g><g><g><filter id="shadow4514915" x="176" y="209" width="76" height="78" filterUnits="userSpaceOnUse" primitiveUnits="userSpaceOnUse"><feFlood></feFlood><feComposite in2="SourceAlpha" operator="in"></feComposite><feGaussianBlur stdDeviation="1"></feGaussianBlur><feOffset dx="0" dy="2" result="afterOffset"></feOffset><feFlood flood-color="#000000" flood-opacity="0.5"></feFlood><feComposite in2="afterOffset" operator="in"></feComposite><feMorphology operator="dilate" radius="0"></feMorphology><feComposite in2="SourceAlpha" operator="out"></feComposite></filter><path d="M243 247C243 263.01 230.01 276 214 276C197.99 276 185 263.01 185 247C185 230.99 197.99 218 214 218C230.01 218 243 230.99 243 247Z" id="aJQzGXUwi" fill="white" fill-opacity="1" filter="url(#shadow4514915)"></path></g><use xlink:href="#ghCNkI7XI" opacity="1" fill="#081018" fill-opacity="0.51"></use></g><g><use xlink:href="#aGpbZ3JWS" opacity="1" fill="#c9e4ff" fill-opacity="1"></use></g><g><use xlink:href="#frVjE6Sh1" opacity="1" fill="#000000" fill-opacity="1"></use><g><use xlink:href="#frVjE6Sh1" opacity="1" fill-opacity="0" stroke="#000000" stroke-width="1" stroke-opacity="0"></use></g></g></g></svg>