<?xml version="1.0" encoding="UTF-8" standalone="no"?>
<!DOCTYPE svg PUBLIC "-//W3C//DTD SVG 1.1//EN" "http://www.w3.org/Graphics/SVG/1.1/DTD/svg11.dtd">
<svg version="1.1" xmlns="http://www.w3.org/2000/svg" xmlns:xlink="http://www.w3.org/1999/xlink" preserveAspectRatio="xMidYMid meet" viewBox="87.00000000000001 51 65.99999999999999 67.7499999999996" width="58" height="58.75"><defs><path d="M149 81.75C149 97.76 136.01 110.75 120 110.75C103.99 110.75 91 97.76 91 81.75C91 65.74 103.99 52.75 120 52.75C136.01 52.75 149 65.74 149 81.75Z" id="a1bZwU28Xm"></path><path d="M149 81C149 97.01 136.01 110 120 110C103.99 110 91 97.01 91 81C91 64.99 103.99 52 120 52C136.01 52 149 64.99 149 81Z" id="hbzN6dBbO"></path><path d="M142.5 57.5C142.5 57.5 142.5 57.5 142.5 57.5C142.5 84.5 142.5 99.5 142.5 102.5C142.5 102.5 142.5 102.5 142.5 102.5C115.5 102.5 100.5 102.5 97.5 102.5C97.5 102.5 97.5 102.5 97.5 102.5C97.5 75.5 97.5 60.5 97.5 57.5C97.5 57.5 97.5 57.5 97.5 57.5C124.5 57.5 139.5 57.5 142.5 57.5Z" id="a1QweWKn3X"></path><path d="M116.48 93.28L120.13 93.28L120.13 94.61L116.48 94.61L116.48 93.28Z" id="ea0HtGFoa"></path><path d="M120.06 62.89C116.74 62.88 113.61 64.16 111.25 66.51C108.87 68.88 107.56 72.04 107.56 75.41C107.56 78.52 108.69 81.5 110.76 83.81C110.95 84.06 112.47 86.12 112.66 86.38C112.79 86.56 114.02 88.96 114.22 88.96C114.36 88.96 115.35 90.94 115.47 90.85C115.76 90.64 113.94 85.89 113.72 85.6C113.53 85.34 112 83.26 111.81 83C111.79 82.98 111.78 82.96 111.76 82.95C109.9 80.88 108.87 78.21 108.87 75.41C108.87 72.4 110.05 69.57 112.18 67.45C114.28 65.36 117.05 64.21 120 64.21C120.02 64.21 120.04 64.21 120.06 64.21C123.73 64.23 127.15 66.06 129.2 69.1C129.41 69.4 130.78 72.36 131.08 72.15C131.38 71.95 130.5 68.66 130.29 68.36C127.99 64.96 124.17 62.91 120.06 62.89Z" id="f1LMS04Iic"></path><path d="M114.9 87.12C114.9 87.12 114.9 87.12 114.9 87.12C114.9 87.12 114.9 87.12 114.9 87.12C114.9 87.12 114.9 87.12 114.9 87.12C114.9 87.12 114.9 87.12 114.9 87.12C114.9 87.12 114.9 87.12 114.9 87.12C114.9 87.12 114.9 87.12 114.9 87.12C114.9 87.12 114.9 87.12 114.9 87.12C114.9 87.12 114.9 87.12 114.9 87.12Z" id="e10MpHLzwl"></path><path d="M115.61 91.95C115.59 91.95 115.53 91.95 115.46 91.95C115.53 91.95 115.59 91.95 115.61 91.95Z" id="aa45IrBBW"></path><path d="M121.41 70.75C121.01 71.72 117.77 79.45 117.37 80.42C117.23 80.75 117.39 81.14 117.72 81.28C117.81 81.32 117.89 81.33 117.98 81.33C118.24 81.33 118.48 81.18 118.59 80.93C118.99 79.96 122.23 72.23 122.63 71.26C122.77 70.92 122.61 70.54 122.28 70.4C121.94 70.26 121.55 70.41 121.41 70.75Z" id="aWPU51ILk"></path><path d="M130.19 68.21L130.27 68.3L130.35 68.42L130.44 68.56L130.54 68.71L130.63 68.88L130.73 69.06L130.83 69.25L130.93 69.44L131.03 69.64L131.12 69.83L131.21 70.02L131.29 70.2L131.37 70.37L131.44 70.53L131.49 70.66L131.54 70.78L131.58 70.87L131.61 70.93L131.68 71.14L131.75 71.34L131.82 71.55L131.89 71.76L131.95 71.97L132 72.18L132.06 72.39L132.11 72.6L132.15 72.81L132.2 73.02L132.24 73.24L132.27 73.45L132.3 73.67L132.33 73.88L132.35 74.1L132.37 74.32L132.39 74.54L132.4 74.75L132.41 74.97L132.42 75.19L132.42 75.41L132.41 75.86L132.39 76.3L132.35 76.74L132.3 77.18L132.23 77.61L132.15 78.04L132.05 78.47L131.93 78.89L131.81 79.3L131.67 79.72L131.51 80.12L131.34 80.52L131.16 80.92L130.96 81.31L130.75 81.69L130.52 82.06L130.28 82.43L130.03 82.79L129.77 83.14L129.49 83.48L129.2 83.82L128.8 84.37L128.41 84.89L128.33 84.99L128.19 85.2L128.04 85.4L127.89 85.6L127.82 85.7L127.67 85.9L127.6 86L127.52 86.1L127.45 86.2L127.37 86.3L127.3 86.4L127.23 86.5L127.11 86.71L126.99 86.93L126.88 87.14L126.77 87.35L126.66 87.56L126.55 87.77L126.45 87.97L126.35 88.18L126.25 88.38L126.16 88.59L126.07 88.79L125.98 88.99L125.89 89.18L125.81 89.37L125.73 89.56L125.65 89.75L125.58 89.94L125.5 90.12L125.43 90.29L125.37 90.47L125.3 90.63L125.34 90.63L125.39 90.64L125.44 90.64L125.49 90.65L125.54 90.67L125.58 90.68L125.63 90.7L125.67 90.72L125.71 90.75L125.75 90.78L125.79 90.81L125.82 90.85L125.85 90.88L125.88 90.92L125.91 90.96L125.93 91L125.95 91.05L125.97 91.09L125.98 91.14L125.99 91.19L125.99 91.24L126 91.29L126 93.27L126.3 93.27L126.36 93.27L126.41 93.28L126.46 93.29L126.5 93.3L126.55 93.32L126.59 93.34L126.64 93.36L126.68 93.39L126.72 93.42L126.75 93.45L126.79 93.48L126.82 93.52L126.85 93.56L126.87 93.6L126.9 93.64L126.92 93.69L126.93 93.73L126.95 93.78L126.96 93.83L126.96 93.88L126.96 93.93L126.96 96.57L126.96 96.62L126.96 96.67L126.95 96.72L126.93 96.77L126.92 96.81L126.9 96.86L126.87 96.9L126.85 96.94L126.82 96.98L126.79 97.02L126.75 97.05L126.72 97.08L126.68 97.11L126.64 97.14L126.59 97.16L126.55 97.18L126.5 97.2L126.46 97.21L126.41 97.22L126.36 97.22L126.3 97.23L126 97.23L126 99.2L125.99 99.26L125.99 99.31L125.98 99.36L125.97 99.4L125.95 99.45L125.93 99.49L125.91 99.54L125.88 99.58L125.85 99.62L125.82 99.65L125.79 99.69L125.75 99.72L125.71 99.75L125.67 99.77L125.63 99.8L125.58 99.82L125.54 99.83L125.49 99.85L125.44 99.86L125.39 99.86L125.34 99.86L124.9 99.86L124.44 101.98L124.43 102.02L124.41 102.07L124.4 102.11L124.38 102.14L124.36 102.18L124.34 102.22L124.31 102.25L124.28 102.28L124.26 102.31L124.22 102.34L124.19 102.37L124.16 102.39L124.12 102.41L124.09 102.43L124.05 102.45L124.01 102.47L123.97 102.48L123.92 102.49L123.88 102.49L123.84 102.5L123.8 102.5L116.16 102.5L116.11 102.5L116.07 102.49L116.03 102.49L115.99 102.48L115.95 102.47L115.91 102.45L115.87 102.43L115.83 102.41L115.79 102.39L115.76 102.37L115.73 102.34L115.7 102.31L115.67 102.28L115.64 102.25L115.62 102.22L115.59 102.18L115.57 102.14L115.55 102.11L115.54 102.07L115.52 102.02L115.51 101.98L115.05 99.86L114.61 99.86L114.56 99.86L114.51 99.86L114.46 99.85L114.42 99.83L114.37 99.82L114.32 99.8L114.28 99.77L114.24 99.75L114.2 99.72L114.17 99.69L114.13 99.65L114.1 99.62L114.07 99.58L114.05 99.54L114.02 99.49L114 99.45L113.99 99.4L113.97 99.36L113.96 99.31L113.96 99.26L113.96 99.2L113.96 97.23L113.65 97.23L113.6 97.22L113.55 97.22L113.5 97.21L113.45 97.2L113.4 97.18L113.36 97.16L113.32 97.14L113.27 97.11L113.24 97.08L113.2 97.05L113.17 97.02L113.13 96.98L113.1 96.94L113.08 96.9L113.06 96.86L113.04 96.81L113.02 96.77L113.01 96.72L113 96.67L112.99 96.62L112.99 96.57L112.99 93.93L112.99 93.88L113 93.83L113.01 93.78L113.02 93.73L113.04 93.69L113.06 93.64L113.08 93.6L113.1 93.56L113.13 93.52L113.17 93.48L113.2 93.45L113.24 93.42L113.27 93.39L113.32 93.36L113.36 93.34L113.4 93.32L113.45 93.3L113.5 93.29L113.55 93.28L113.6 93.27L113.65 93.27L113.96 93.27L113.96 91.29L113.96 91.24L113.96 91.19L113.97 91.14L113.99 91.09L114 91.05L114.02 91L114.05 90.96L114.07 90.92L114.1 90.88L114.13 90.85L114.17 90.81L114.2 90.78L114.24 90.75L114.28 90.72L114.32 90.7L114.37 90.68L114.42 90.67L114.46 90.65L114.51 90.64L114.56 90.64L114.61 90.63L114.65 90.63L114.61 90.54L114.56 90.41L114.49 90.26L114.41 90.09L114.32 89.89L114.23 89.68L114.12 89.45L114.01 89.21L113.89 88.97L113.77 88.71L113.65 88.46L113.53 88.2L113.41 87.95L113.19 87.47L113.08 87.25L112.98 87.04L112.89 86.85L112.81 86.68L112.75 86.54L112.69 86.42L112.68 86.39L112.69 86.38L112.71 86.4L112.75 86.44L112.8 86.5L112.86 86.58L112.94 86.67L113.02 86.77L113.11 86.88L113.2 87L113.3 87.11L113.4 87.23L113.51 87.35L113.61 87.46L113.71 87.56L113.8 87.64L113.89 87.72L113.98 87.78L114.05 87.82L114.12 87.83L114.17 87.83L114.21 87.79L114.23 87.73L114.24 87.64L114.24 87.53L114.22 87.41L114.2 87.27L114.17 87.12L114.13 86.97L114.08 86.81L114.03 86.64L113.98 86.48L113.93 86.33L113.88 86.18L113.84 86.04L113.79 85.92L113.76 85.82L113.73 85.73L113.7 85.67L113.69 85.64L113.69 85.63L113.71 85.66L113.77 85.8L113.85 85.96L113.94 86.15L114.04 86.36L114.16 86.6L114.28 86.86L114.41 87.13L114.55 87.41L114.69 87.7L114.83 87.99L114.98 88.29L115.12 88.58L115.26 88.87L115.39 89.15L115.52 89.42L115.64 89.68L115.75 89.92L115.85 90.14L115.93 90.33L116 90.5L116.05 90.63L123.9 90.63L123.97 90.45L124.04 90.25L124.11 90.06L124.19 89.85L124.27 89.64L124.36 89.43L124.45 89.21L124.54 88.98L124.64 88.76L124.74 88.53L124.85 88.29L124.95 88.05L125.07 87.81L125.18 87.57L125.3 87.32L125.42 87.07L125.55 86.82L125.68 86.57L125.82 86.32L125.96 86.07L126.1 85.81L126.11 85.8L126.11 85.8L126.11 85.79L126.12 85.78L126.13 85.77L126.13 85.76L126.14 85.75L126.22 85.65L126.29 85.55L126.37 85.44L126.44 85.34L126.52 85.24L126.59 85.14L126.67 85.04L126.74 84.93L126.82 84.83L126.97 84.63L127.04 84.53L127.12 84.43L127.19 84.32L127.42 84.02L127.72 83.61L128.16 83.01L128.17 83L128.18 82.98L128.18 82.98L128.19 82.98L128.19 82.97L128.19 82.97L128.19 82.97L128.2 82.96L128.46 82.66L128.71 82.35L128.95 82.04L129.18 81.71L129.39 81.39L129.59 81.05L129.78 80.71L129.96 80.36L130.13 80L130.28 79.64L130.42 79.28L130.55 78.91L130.66 78.53L130.77 78.16L130.85 77.77L130.93 77.39L130.99 77L131.04 76.61L131.07 76.21L131.1 75.81L131.1 75.41L131.1 75.22L131.1 75.02L131.09 74.82L131.08 74.63L131.06 74.43L131.04 74.24L131.02 74.04L131 73.85L130.97 73.66L130.94 73.46L130.9 73.27L130.86 73.08L130.82 72.89L130.78 72.7L130.73 72.51L130.68 72.33L130.62 72.14L130.57 71.95L130.51 71.77L130.44 71.58L130.37 71.4L130.35 71.34L130.33 71.24L130.29 71.12L130.26 70.97L130.22 70.81L130.18 70.62L130.14 70.43L130.1 70.22L130.06 70L130.03 69.79L129.99 69.57L129.96 69.35L129.94 69.15L129.92 68.95L129.9 68.76L129.89 68.59L129.89 68.44L129.9 68.32L129.92 68.22L129.95 68.15L130 68.11L130.05 68.11L130.11 68.15L130.19 68.21ZM116.69 101.18L123.26 101.18L123.55 99.86L116.4 99.86L116.69 101.18ZM115.27 98.54L124.68 98.54L124.68 97.23L115.27 97.23L115.27 98.54ZM115.27 93.27L117.15 93.27L117.27 93.28L117.38 93.31L117.48 93.36L117.57 93.43L117.65 93.51L117.72 93.6L117.77 93.7L117.8 93.81L117.81 93.93L117.8 94.05L117.77 94.16L117.72 94.26L117.65 94.36L117.57 94.43L117.48 94.5L117.38 94.55L117.27 94.58L117.15 94.59L114.31 94.59L114.31 95.91L125.65 95.91L125.65 94.59L119.55 94.59L119.44 94.58L119.37 94.55L119.33 94.5L119.3 94.43L119.29 94.36L119.3 94.26L119.3 94.16L119.31 94.05L119.32 93.93L119.33 93.81L119.36 93.7L119.41 93.6L119.47 93.51L119.55 93.43L119.64 93.36L119.75 93.31L119.86 93.28L119.98 93.27L124.68 93.27L124.68 91.95L115.27 91.95L115.27 93.27Z" id="c8HOs8Zdp"></path><path d="M123.84 72.34C123.56 72.11 123.14 72.15 122.92 72.44C122.69 72.72 122.73 73.13 123.01 73.36C123.22 73.53 124.24 74.35 126.07 75.84C124.24 77.32 123.22 78.15 123.01 78.31C122.73 78.54 122.69 78.96 122.92 79.24C123.05 79.4 123.24 79.49 123.43 79.49C123.57 79.49 123.72 79.44 123.84 79.34C124.21 79.04 127.16 76.65 127.53 76.35C127.69 76.23 127.78 76.04 127.78 75.84C127.78 75.64 127.69 75.45 127.53 75.33C126.8 74.73 124.21 72.64 123.84 72.34Z" id="anmXAwv6N"></path><path d="M124.39 91.95C124.41 91.95 124.48 91.95 124.54 91.95C124.48 91.95 124.41 91.95 124.39 91.95Z" id="l1dgFZ8p14"></path><path d="M113.93 75.84C115.76 74.35 116.78 73.53 116.99 73.36C117.27 73.13 117.31 72.72 117.08 72.44C116.86 72.15 116.44 72.11 116.16 72.34C115.79 72.64 112.84 75.03 112.47 75.33C112.31 75.45 112.22 75.64 112.22 75.84C112.22 76.04 112.31 76.23 112.47 76.35C112.84 76.65 115.79 79.04 116.16 79.34C116.28 79.44 116.43 79.49 116.57 79.49C116.76 79.49 116.95 79.4 117.08 79.24C117.31 78.96 117.27 78.54 116.99 78.31C116.58 77.98 115.56 77.16 113.93 75.84Z" id="a2YYoDIT9k"></path><path d="M119.34 58.16C119.34 58.46 119.34 60.87 119.34 61.17C119.34 61.54 119.64 61.83 120 61.83C120.36 61.83 120.66 61.54 120.66 61.17C120.66 60.87 120.66 58.46 120.66 58.16C120.66 57.8 120.36 57.5 120 57.5C119.64 57.5 119.34 57.8 119.34 58.16Z" id="a1fz6IX1xE"></path><path d="M128.44 60.18C128.29 60.44 127.08 62.53 126.93 62.79C126.75 63.1 126.86 63.51 127.17 63.69C127.28 63.75 127.39 63.78 127.5 63.78C127.73 63.78 127.95 63.66 128.07 63.45C128.22 63.19 129.43 61.1 129.58 60.84C129.76 60.52 129.65 60.12 129.34 59.94C129.02 59.75 128.62 59.86 128.44 60.18Z" id="aaWOh68LT"></path><path d="M111.56 60.24C111.38 59.93 110.98 59.82 110.66 60C110.35 60.19 110.24 60.59 110.42 60.9C110.57 61.16 111.78 63.25 111.93 63.51C112.05 63.73 112.27 63.84 112.5 63.84C112.61 63.84 112.72 63.82 112.83 63.76C113.14 63.57 113.25 63.17 113.07 62.86C112.77 62.33 111.71 60.51 111.56 60.24Z" id="ewWaw5ALS"></path><path d="M135.27 66.55C135.01 66.7 132.92 67.91 132.66 68.06C132.35 68.24 132.24 68.64 132.42 68.96C132.54 69.17 132.76 69.29 132.99 69.29C133.1 69.29 133.22 69.26 133.32 69.2C133.58 69.05 135.67 67.84 135.93 67.69C136.25 67.51 136.36 67.11 136.17 66.79C135.99 66.48 135.59 66.37 135.27 66.55Z" id="b17bvR5C2k"></path><path d="M104.73 66.59C104.41 66.41 104.01 66.51 103.83 66.83C103.64 67.14 103.75 67.55 104.07 67.73C104.33 67.88 106.42 69.09 106.68 69.24C106.78 69.3 106.9 69.33 107.01 69.33C107.24 69.33 107.46 69.21 107.58 69C107.76 68.68 107.65 68.28 107.34 68.1C106.82 67.79 104.99 66.74 104.73 66.59Z" id="b2uCn70f3a"></path><path d="M106.68 83.06C106.42 83.21 104.33 84.42 104.07 84.57C103.75 84.75 103.64 85.15 103.83 85.47C103.95 85.68 104.17 85.8 104.4 85.8C104.51 85.8 104.62 85.77 104.73 85.71C104.99 85.56 107.08 84.35 107.34 84.2C107.65 84.02 107.76 83.62 107.58 83.3C107.4 82.99 106.99 82.88 106.68 83.06Z" id="b18NMct0Xl"></path><path d="M133.32 83.1C133.01 82.92 132.6 83.02 132.42 83.34C132.24 83.65 132.35 84.06 132.66 84.24C132.92 84.39 135.01 85.6 135.27 85.75C135.38 85.81 135.49 85.84 135.6 85.84C135.83 85.84 136.05 85.72 136.17 85.51C136.36 85.19 136.25 84.79 135.93 84.61C135.41 84.3 133.58 83.25 133.32 83.1Z" id="cu0DeQFZl"></path><path d="M135 75.49C134.64 75.49 134.34 75.79 134.34 76.15C134.34 76.51 134.64 76.81 135 76.81C135.3 76.81 137.72 76.81 138.02 76.81C138.38 76.81 138.68 76.51 138.68 76.15C138.68 75.79 138.38 75.49 138.02 75.49C137.41 75.49 135.3 75.49 135 75.49Z" id="f1lrqnuNHG"></path><path d="M101.98 75.49C101.62 75.49 101.32 75.79 101.32 76.15C101.32 76.51 101.62 76.81 101.98 76.81C102.28 76.81 104.7 76.81 105 76.81C105.36 76.81 105.66 76.51 105.66 76.15C105.66 75.79 105.36 75.49 105 75.49C104.39 75.49 102.28 75.49 101.98 75.49Z" id="a372vTaRH"></path></defs><g><g><g><filter id="shadow14863093" x="82" y="43.75" width="76" height="78" filterUnits="userSpaceOnUse" primitiveUnits="userSpaceOnUse"><feFlood></feFlood><feComposite in2="SourceAlpha" operator="in"></feComposite><feGaussianBlur stdDeviation="1"></feGaussianBlur><feOffset dx="0" dy="2" result="afterOffset"></feOffset><feFlood flood-color="#000000" flood-opacity="0.5"></feFlood><feComposite in2="afterOffset" operator="in"></feComposite><feMorphology operator="dilate" radius="0"></feMorphology><feComposite in2="SourceAlpha" operator="out"></feComposite></filter><path d="M149 81.75C149 97.76 136.01 110.75 120 110.75C103.99 110.75 91 97.76 91 81.75C91 65.74 103.99 52.75 120 52.75C136.01 52.75 149 65.74 149 81.75Z" id="g7fmxSLasE" fill="white" fill-opacity="1" filter="url(#shadow14863093)"></path></g><use xlink:href="#a1bZwU28Xm" opacity="1" fill="#081018" fill-opacity="0.51"></use></g><g><use xlink:href="#hbzN6dBbO" opacity="1" fill="#c9e4ff" fill-opacity="1"></use></g><g><use xlink:href="#a1QweWKn3X" opacity="1" fill="#000000" fill-opacity="0"></use><g><use xlink:href="#a1QweWKn3X" opacity="1" fill-opacity="0" stroke="#000000" stroke-width="1" stroke-opacity="0"></use></g></g><g><use xlink:href="#ea0HtGFoa" opacity="1" fill="#031111" fill-opacity="1"></use></g><g><use xlink:href="#f1LMS04Iic" opacity="1" fill="#000000" fill-opacity="1"></use><g><use xlink:href="#f1LMS04Iic" opacity="1" fill-opacity="0" stroke="#000000" stroke-width="1" stroke-opacity="0"></use></g></g><g><use xlink:href="#e10MpHLzwl" opacity="1" fill="#000000" fill-opacity="1"></use><g><use xlink:href="#e10MpHLzwl" opacity="1" fill-opacity="0" stroke="#000000" stroke-width="1" stroke-opacity="0"></use></g></g><g><use xlink:href="#aa45IrBBW" opacity="1" fill="#000000" fill-opacity="1"></use><g><use xlink:href="#aa45IrBBW" opacity="1" fill-opacity="0" stroke="#000000" stroke-width="1" stroke-opacity="0"></use></g></g><g><use xlink:href="#aWPU51ILk" opacity="1" fill="#000000" fill-opacity="1"></use><g><use xlink:href="#aWPU51ILk" opacity="1" fill-opacity="0" stroke="#000000" stroke-width="1" stroke-opacity="0"></use></g></g><g><use xlink:href="#c8HOs8Zdp" opacity="1" fill="#000000" fill-opacity="1"></use><g><use xlink:href="#c8HOs8Zdp" opacity="1" fill-opacity="0" stroke="#000000" stroke-width="1" stroke-opacity="0"></use></g></g><g><use xlink:href="#anmXAwv6N" opacity="1" fill="#000000" fill-opacity="1"></use><g><use xlink:href="#anmXAwv6N" opacity="1" fill-opacity="0" stroke="#000000" stroke-width="1" stroke-opacity="0"></use></g></g><g><use xlink:href="#l1dgFZ8p14" opacity="1" fill="#000000" fill-opacity="1"></use><g><use xlink:href="#l1dgFZ8p14" opacity="1" fill-opacity="0" stroke="#000000" stroke-width="1" stroke-opacity="0"></use></g></g><g><use xlink:href="#a2YYoDIT9k" opacity="1" fill="#000000" fill-opacity="1"></use><g><use xlink:href="#a2YYoDIT9k" opacity="1" fill-opacity="0" stroke="#000000" stroke-width="1" stroke-opacity="0"></use></g></g><g><use xlink:href="#a1fz6IX1xE" opacity="1" fill="#000000" fill-opacity="1"></use><g><use xlink:href="#a1fz6IX1xE" opacity="1" fill-opacity="0" stroke="#000000" stroke-width="1" stroke-opacity="0"></use></g></g><g><use xlink:href="#aaWOh68LT" opacity="1" fill="#000000" fill-opacity="1"></use><g><use xlink:href="#aaWOh68LT" opacity="1" fill-opacity="0" stroke="#000000" stroke-width="1" stroke-opacity="0"></use></g></g><g><use xlink:href="#ewWaw5ALS" opacity="1" fill="#000000" fill-opacity="1"></use><g><use xlink:href="#ewWaw5ALS" opacity="1" fill-opacity="0" stroke="#000000" stroke-width="1" stroke-opacity="0"></use></g></g><g><use xlink:href="#b17bvR5C2k" opacity="1" fill="#000000" fill-opacity="1"></use><g><use xlink:href="#b17bvR5C2k" opacity="1" fill-opacity="0" stroke="#000000" stroke-width="1" stroke-opacity="0"></use></g></g><g><use xlink:href="#b2uCn70f3a" opacity="1" fill="#000000" fill-opacity="1"></use><g><use xlink:href="#b2uCn70f3a" opacity="1" fill-opacity="0" stroke="#000000" stroke-width="1" stroke-opacity="0"></use></g></g><g><use xlink:href="#b18NMct0Xl" opacity="1" fill="#000000" fill-opacity="1"></use><g><use xlink:href="#b18NMct0Xl" opacity="1" fill-opacity="0" stroke="#000000" stroke-width="1" stroke-opacity="0"></use></g></g><g><use xlink:href="#cu0DeQFZl" opacity="1" fill="#000000" fill-opacity="1"></use><g><use xlink:href="#cu0DeQFZl" opacity="1" fill-opacity="0" stroke="#000000" stroke-width="1" stroke-opacity="0"></use></g></g><g><use xlink:href="#f1lrqnuNHG" opacity="1" fill="#000000" fill-opacity="1"></use><g><use xlink:href="#f1lrqnuNHG" opacity="1" fill-opacity="0" stroke="#000000" stroke-width="1" stroke-opacity="0"></use></g></g><g><use xlink:href="#a372vTaRH" opacity="1" fill="#000000" fill-opacity="1"></use><g><use xlink:href="#a372vTaRH" opacity="1" fill-opacity="0" stroke="#000000" stroke-width="1" stroke-opacity="0"></use></g></g></g></svg>